<svg xmlns="http://www.w3.org/2000/svg" width="35" height="21" viewBox="0 0 35 21"><defs><style>.a{fill:#89b850;}</style></defs><path class="a" d="M33.25,4.5H1.75A1.75,1.75,0,0,0,0,6.25v17.5A1.75,1.75,0,0,0,1.75,25.5h31.5A1.75,1.75,0,0,0,35,23.75V6.25A1.75,1.75,0,0,0,33.25,4.5ZM2.625,22.875v-3.5a3.5,3.5,0,0,1,3.5,3.5Zm0-12.25v-3.5h3.5A3.5,3.5,0,0,1,2.625,10.625ZM17.5,20.25c-2.417,0-4.375-2.351-4.375-5.25S15.084,9.75,17.5,9.75,21.875,12.1,21.875,15,19.916,20.25,17.5,20.25Zm14.875,2.625h-3.5a3.5,3.5,0,0,1,3.5-3.5Zm0-12.25a3.5,3.5,0,0,1-3.5-3.5h3.5Z" transform="translate(0 -4.5)"/></svg>