<svg xmlns="http://www.w3.org/2000/svg" width="20.825" height="24.295" viewBox="0 0 20.825 24.295"><defs><style>.a{fill:#89b850;}</style></defs><path class="a" d="M10.412,10.412a29.375,29.375,0,0,0,6.006-.583,11.831,11.831,0,0,0,4.406-1.722v2.3q0,.935-1.4,1.735a12.6,12.6,0,0,1-3.8,1.267,27.309,27.309,0,0,1-5.219.468,27.309,27.309,0,0,1-5.219-.468,12.614,12.614,0,0,1-3.8-1.267Q0,11.348,0,10.412V8.107A11.822,11.822,0,0,0,4.406,9.829a29.432,29.432,0,0,0,6.006.583Zm0,10.412a29.375,29.375,0,0,0,6.006-.583,11.831,11.831,0,0,0,4.406-1.722v2.3q0,.935-1.4,1.735a12.6,12.6,0,0,1-3.8,1.267,27.309,27.309,0,0,1-5.219.468,27.309,27.309,0,0,1-5.219-.468A12.6,12.6,0,0,1,1.4,22.56Q0,21.76,0,20.824v-2.3a11.822,11.822,0,0,0,4.406,1.722,29.432,29.432,0,0,0,6.006.583Zm0-5.206a29.375,29.375,0,0,0,6.006-.583,11.831,11.831,0,0,0,4.406-1.722v2.3q0,.935-1.4,1.735a12.6,12.6,0,0,1-3.8,1.267,27.309,27.309,0,0,1-5.219.468,27.309,27.309,0,0,1-5.219-.468,12.6,12.6,0,0,1-3.8-1.267Q0,16.554,0,15.618v-2.3a11.822,11.822,0,0,0,4.406,1.722,29.432,29.432,0,0,0,6.006.583ZM10.412,0a27.3,27.3,0,0,1,5.219.468,12.6,12.6,0,0,1,3.8,1.267q1.4.8,1.4,1.735V5.205q0,.935-1.4,1.735a12.6,12.6,0,0,1-3.8,1.267,27.378,27.378,0,0,1-5.219.469,27.165,27.165,0,0,1-5.219-.468A12.655,12.655,0,0,1,1.4,6.942Q0,6.143,0,5.206V3.471q0-.935,1.4-1.735A12.6,12.6,0,0,1,5.192.468,27.348,27.348,0,0,1,10.412,0Z"/></svg>