<svg xmlns="http://www.w3.org/2000/svg" width="22" height="22" viewBox="0 0 22 22"><defs><style>.a{fill:#e1e1e1;stroke:#e1e1e1;}.b{fill:#848484;}.c{stroke:none;}.d{fill:none;}</style></defs><g transform="translate(-836 -201)"><g class="a" transform="translate(836 201)"><circle class="c" cx="11" cy="11" r="11"/><circle class="d" cx="11" cy="11" r="10.5"/></g><g transform="translate(842 207.5)"><path class="b" d="M414.743,376.8a.391.391,0,0,0-.547.08c-.071.1-.147.189-.225.278a.391.391,0,0,0,.585.517c.093-.105.183-.216.267-.329A.391.391,0,0,0,414.743,376.8Z" transform="translate(-405.79 -369.369)"/><path class="b" d="M463.088,286.433a.391.391,0,0,0-.465.3c-.025.116-.056.232-.091.345a.391.391,0,1,0,.746.231c.042-.134.078-.272.108-.41A.391.391,0,0,0,463.088,286.433Z" transform="translate(-453.482 -280.83)"/><path class="b" d="M334.575,442.243c-.1.058-.211.112-.319.161a.391.391,0,1,0,.322.712c.128-.058.255-.122.378-.191a.391.391,0,0,0-.381-.682Z" transform="translate(-327.502 -433.557)"/><path class="b" d="M158.35,76.391v2.963l-1.432,1.432a.391.391,0,0,0,.552.552l1.547-1.547a.391.391,0,0,0,.114-.276V76.391a.391.391,0,0,0-.781,0Z" transform="translate(-153.741 -74.516)"/><path class="b" d="M9.609.84a.391.391,0,0,0-.391.391V2.315A5,5,0,1,0,5,10h.02c.141,0,.283-.006.423-.018A.391.391,0,1,0,5.377,9.2c-.118.01-.238.015-.357.015H5A4.219,4.219,0,1,1,8.632,2.852H7.557a.391.391,0,1,0,0,.781H8.75A1.242,1.242,0,0,0,9.4,3.45l.035-.023A1.25,1.25,0,0,0,10,2.383V1.23A.391.391,0,0,0,9.609.84Z"/></g></g></svg>