<svg xmlns="http://www.w3.org/2000/svg" xmlns:xlink="http://www.w3.org/1999/xlink" viewBox="0 0 556.58 585.79">
  <defs>
    <style>.cls-1{fill:#141433;}.cls-2{fill:url(#linear-gradient);}.cls-3{fill:url(#linear-gradient-2);}.cls-4{fill:url(#linear-gradient-3);}.cls-5{fill:url(#linear-gradient-4);}.cls-6{fill:url(#linear-gradient-5);}.cls-7{fill:url(#linear-gradient-6);}</style>
    <linearGradient id="linear-gradient" x1="163.18" y1="182.56" x2="142.53" y2="4.49" gradientTransform="translate(11.35 -16.42) rotate(6.39)" gradientUnits="userSpaceOnUse">
      <stop offset="0" stop-color="#005d96"/>
      <stop offset="0.3" stop-color="#005d96"/>
      <stop offset="0.32" stop-color="#025f98"/>
      <stop offset="0.57" stop-color="#1873b1"/>
      <stop offset="0.81" stop-color="#2580c0"/>
      <stop offset="1" stop-color="#2a84c5"/>
    </linearGradient>
    <linearGradient id="linear-gradient-2" x1="274.29" y1="170.12" x2="262.6" y2="69.26" gradientTransform="translate(14.98 -29.11) rotate(6.39)" xlink:href="#linear-gradient"/>
    <linearGradient id="linear-gradient-3" x1="387.2" y1="159.38" x2="372.35" y2="31.3" gradientTransform="translate(12.48 -41.62) rotate(6.39)" xlink:href="#linear-gradient"/>
    <linearGradient id="linear-gradient-4" x1="436.37" y1="413.27" x2="334.1" y2="17.63" gradientTransform="translate(32.48 -42.73) rotate(6.39)" gradientUnits="userSpaceOnUse">
      <stop offset="0" stop-color="#005d96" stop-opacity="0"/>
      <stop offset="0.3" stop-color="#005d96" stop-opacity="0.1"/>
      <stop offset="0.43" stop-color="#07639e" stop-opacity="0.25"/>
      <stop offset="0.73" stop-color="#1974b2" stop-opacity="0.63"/>
      <stop offset="1" stop-color="#2a84c5"/>
    </linearGradient>
    <linearGradient id="linear-gradient-5" x1="308.91" y1="367.68" x2="249.54" y2="88.21" gradientTransform="translate(28.92 -29.92) rotate(6.39)" xlink:href="#linear-gradient-4"/>
    <linearGradient id="linear-gradient-6" x1="191.36" y1="379.19" x2="144.97" y2="111.13" gradientTransform="translate(31.35 -17.53) rotate(6.39)" xlink:href="#linear-gradient-4"/>
  </defs>
  <g id="Layer_2" data-name="Layer 2">
    <g id="Layer_1-2" data-name="Layer 1">
      <path class="cls-1" d="M0,499.48V420.06H20v32.15H50.28V420.06h19.9v79.42H50.28V467.92H20v31.56Z"/>
      <path class="cls-1" d="M114.16,499.48V465.19L82.9,420.06h24.59L131,458h-9.27l21.38-38H163L131.33,470l2.84-10.24v39.77Z"/>
      <path class="cls-1" d="M200.52,501.14a99.83,99.83,0,0,1-11.37-.59,63.91,63.91,0,0,1-9.39-1.79,52.9,52.9,0,0,1-8.4-3.09V477.33A40.82,40.82,0,0,0,184.21,484a45.14,45.14,0,0,0,13.59,2.26q5.69,0,8.71-2.08a7.21,7.21,0,0,0,3-6.37,6.06,6.06,0,0,0-2.78-5.18,28,28,0,0,0-7.35-3.46q-4.57-1.49-10.26-3.39a46,46,0,0,1-7-2.74,24.41,24.41,0,0,1-6.18-4.22,18.77,18.77,0,0,1-4.32-6.25,22.68,22.68,0,0,1-1.61-9.05,24.7,24.7,0,0,1,1.85-9.41,22.71,22.71,0,0,1,5.75-8.1,27.9,27.9,0,0,1,10-5.65,43.63,43.63,0,0,1,14.2-2.08,59.43,59.43,0,0,1,9,.59,49.43,49.43,0,0,1,7.48,1.73,55.31,55.31,0,0,1,7.29,2.91v18.58a47,47,0,0,0-6.37-4.23,44.72,44.72,0,0,0-7.35-3.27,26.82,26.82,0,0,0-8-1.43,23.27,23.27,0,0,0-6.79.71,10,10,0,0,0-4.82,2.68,6.57,6.57,0,0,0-1.73,4.7,6.71,6.71,0,0,0,2.1,5.24,16.4,16.4,0,0,0,5.8,3.16c2.48.83,5.23,1.72,8.28,2.68a89.2,89.2,0,0,1,9.33,3.15,29,29,0,0,1,7.48,4.35,17.65,17.65,0,0,1,4.94,6.43,22.08,22.08,0,0,1,1.73,9.16,25.33,25.33,0,0,1-3.46,13,24.22,24.22,0,0,1-10,9.29Q210,501.14,200.52,501.14Z"/>
      <path class="cls-1" d="M238.32,499.48l31.14-79.42h21.87l29.15,79.42H300l-26.31-74.89,9.76-.84-26.19,75.73Zm17.55-17.15L260,468.16h37.43l1.85,14.17Z"/>
      <path class="cls-1" d="M332.22,499.48V420.06h35a49.78,49.78,0,0,1,15.63,2.2,20.92,20.92,0,0,1,10.32,7q3.71,4.81,3.71,12.8a13.82,13.82,0,0,1-2.72,8.81,21,21,0,0,1-6.55,5.53,50.18,50.18,0,0,1-7.17,3.28l-2.22-4.17a29.91,29.91,0,0,1,11.92,2.68,19.43,19.43,0,0,1,8,6.79A18.28,18.28,0,0,1,401,475.42q0,8.34-4.14,13.64a24.48,24.48,0,0,1-11.06,7.86,44,44,0,0,1-15.32,2.56Zm20-48.22H368.3a10.09,10.09,0,0,0,3.95-.78,6.87,6.87,0,0,0,3-2.44,7.51,7.51,0,0,0,1.17-4.4q0-4.89-2.72-6.73a11.59,11.59,0,0,0-6.67-1.85H352.24Zm0,33.33H369a17.48,17.48,0,0,0,5.68-.89,8.52,8.52,0,0,0,4.2-3.1,9.77,9.77,0,0,0,1.61-5.89,9.25,9.25,0,0,0-1-4.52,7.32,7.32,0,0,0-2.66-2.8,12.53,12.53,0,0,0-3.76-1.49,20,20,0,0,0-4.45-.48H352.24Z"/>
      <path class="cls-1" d="M409.31,499.48l31.14-79.42h21.87l29.15,79.42H471l-26.31-74.89,9.76-.84-26.19,75.73Zm17.55-17.15,4.08-14.17h37.43l1.85,14.17Z"/>
      <path class="cls-1" d="M513.09,499.48V434.94H490V420.06h66.59v14.88H533.11v64.54Z"/>
      <path class="cls-1" d="M.89,573.1V530.32H5.54l14.74,24.31-2.93.7,15.57-25h4.65V573.1H33.28V534.94h1.9l-16.4,24.75L3.64,535.45l1.55-2.37v40Z"/>
      <path class="cls-1" d="M58,574.06a18,18,0,0,1-4-.45,11.39,11.39,0,0,1-3.7-1.54,8.13,8.13,0,0,1-2.74-3,9.77,9.77,0,0,1-1.05-4.78,12.54,12.54,0,0,1,1.41-6.38,8,8,0,0,1,3.87-3.46,14.31,14.31,0,0,1,5.7-1.06,23.67,23.67,0,0,1,4.23.32,13.78,13.78,0,0,1,3.19.93A15.28,15.28,0,0,1,67.45,556l.83,4.23a12,12,0,0,0-4-1.89,19.06,19.06,0,0,0-5.7-.8,9.38,9.38,0,0,0-5.78,1.54,5.25,5.25,0,0,0-2,4.48A5.6,5.6,0,0,0,52,567.39a6.64,6.64,0,0,0,3.1,2A13.2,13.2,0,0,0,59,570a21.22,21.22,0,0,0,5.87-.61,2.63,2.63,0,0,0,2-2.79V551.87q0-3.72-2-5.45A8.62,8.62,0,0,0,59,544.69a18.89,18.89,0,0,0-5,.73,12.18,12.18,0,0,0-4.56,2.34v-4.61a13.71,13.71,0,0,1,5-2,28.18,28.18,0,0,1,6-.67,15.48,15.48,0,0,1,3.64.41,10.78,10.78,0,0,1,3,1.22,8.1,8.1,0,0,1,2.24,2.05,9.88,9.88,0,0,1,1.43,2.89,12.38,12.38,0,0,1,.5,3.69V566.3a6.42,6.42,0,0,1-1.87,5.06,9.59,9.59,0,0,1-4.89,2.18A37.81,37.81,0,0,1,58,574.06Z"/>
      <path class="cls-1" d="M81,543.66a30.67,30.67,0,0,1,3-1.38,22.36,22.36,0,0,1,3.1-1,26.11,26.11,0,0,1,3.22-.58,27.89,27.89,0,0,1,3.31-.19,14.64,14.64,0,0,1,6.91,1.38,8.19,8.19,0,0,1,3.73,4,15.59,15.59,0,0,1,1.16,6.35V573.1h-4.29V552.25a11.74,11.74,0,0,0-.27-2.43,7.09,7.09,0,0,0-1-2.47,5.54,5.54,0,0,0-2.39-1.93,10.45,10.45,0,0,0-4.29-.73,23.08,23.08,0,0,0-3.82.32,27.48,27.48,0,0,0-4,1V573.1H81Z"/>
      <path class="cls-1" d="M125.53,574.06a18,18,0,0,1-4-.45,11.3,11.3,0,0,1-3.7-1.54,8.24,8.24,0,0,1-2.75-3,9.89,9.89,0,0,1-1-4.78,12.65,12.65,0,0,1,1.4-6.38,8.09,8.09,0,0,1,3.88-3.46,14.29,14.29,0,0,1,5.69-1.06,23.78,23.78,0,0,1,4.24.32,14.07,14.07,0,0,1,3.19.93A15.17,15.17,0,0,1,135,556l.84,4.23a12.14,12.14,0,0,0-4-1.89,19,19,0,0,0-5.69-.8,9.39,9.39,0,0,0-5.79,1.54,5.27,5.27,0,0,0-2,4.48,5.55,5.55,0,0,0,1.22,3.79,6.59,6.59,0,0,0,3.1,2,13.13,13.13,0,0,0,3.84.57,21.25,21.25,0,0,0,5.88-.61,2.63,2.63,0,0,0,2-2.79V551.87q0-3.72-2-5.45a8.63,8.63,0,0,0-5.79-1.73,18.76,18.76,0,0,0-5,.73,12.3,12.3,0,0,0-4.57,2.34v-4.61a13.86,13.86,0,0,1,5-2,28.34,28.34,0,0,1,6-.67,15.34,15.34,0,0,1,3.63.41,10.84,10.84,0,0,1,3,1.22,7.93,7.93,0,0,1,2.23,2.05,9.41,9.41,0,0,1,1.43,2.89,12.37,12.37,0,0,1,.51,3.69V566.3a6.43,6.43,0,0,1-1.88,5.06,9.52,9.52,0,0,1-4.89,2.18A37.69,37.69,0,0,1,125.53,574.06Z"/>
      <path class="cls-1" d="M160.72,574.06a13.66,13.66,0,0,1-7.61-2,11.72,11.72,0,0,1-4.5-5.58,22.48,22.48,0,0,1-1.49-8.56,24.58,24.58,0,0,1,1.37-9,12.93,12.93,0,0,1,3.55-5.25,12.08,12.08,0,0,1,4.77-2.51,20.44,20.44,0,0,1,5-.67,17.74,17.74,0,0,1,5.34.8,9.59,9.59,0,0,1,4.17,2.54,6.43,6.43,0,0,1,1.64,4.61v25.91a14.85,14.85,0,0,1-.54,3.91,9.64,9.64,0,0,1-1.93,3.69,9.83,9.83,0,0,1-3.94,2.73,17.71,17.71,0,0,1-6.53,1,20.36,20.36,0,0,1-4.71-.51c-1.43-.34-2.68-.66-3.76-1V580c.64.17,1.36.37,2.18.61s1.71.43,2.68.61a18.3,18.3,0,0,0,3.13.25,13,13,0,0,0,6-1.06,5.16,5.16,0,0,0,2.53-2.63,8.78,8.78,0,0,0,.6-3.17v-4.68l1.49,1.6a16.12,16.12,0,0,1-2.86,1.22,31.07,31.07,0,0,1-3.52,1A14.94,14.94,0,0,1,160.72,574.06Zm0-4.23a16.29,16.29,0,0,0,4-.55,14.09,14.09,0,0,0,4-1.7V549.17a3.69,3.69,0,0,0-.93-2.72,4.87,4.87,0,0,0-2.47-1.28,14.81,14.81,0,0,0-3.34-.36q-4.35,0-6.56,1.83a9,9,0,0,0-3,4.84,25.8,25.8,0,0,0-.78,6.48,15.8,15.8,0,0,0,2.09,8.56C155.13,568.72,157.46,569.83,160.72,569.83Z"/>
      <path class="cls-1" d="M182.84,535.39v-5.07h4.77v5.07Zm.24,37.71v-32h4.29v32Z"/>
      <path class="cls-1" d="M197.45,543.66a31.66,31.66,0,0,1,3-1.38,23.25,23.25,0,0,1,3.1-1,26.61,26.61,0,0,1,3.23-.58,27.89,27.89,0,0,1,3.31-.19A14.64,14.64,0,0,1,217,541.9a8.19,8.19,0,0,1,3.73,4,15.59,15.59,0,0,1,1.16,6.35V573.1h-4.29V552.25a11.74,11.74,0,0,0-.27-2.43,7.29,7.29,0,0,0-1-2.47,5.6,5.6,0,0,0-2.39-1.93,10.45,10.45,0,0,0-4.29-.73,23.08,23.08,0,0,0-3.82.32,27.48,27.48,0,0,0-4,1V573.1h-4.3Z"/>
      <path class="cls-1" d="M243.79,574.06a13.68,13.68,0,0,1-7.61-2,11.83,11.83,0,0,1-4.5-5.58,22.48,22.48,0,0,1-1.49-8.56,24.58,24.58,0,0,1,1.37-9,13,13,0,0,1,3.55-5.25,12.08,12.08,0,0,1,4.77-2.51,20.44,20.44,0,0,1,5-.67,17.74,17.74,0,0,1,5.34.8,9.59,9.59,0,0,1,4.17,2.54,6.39,6.39,0,0,1,1.64,4.61v25.91a15.26,15.26,0,0,1-.53,3.91,9.41,9.41,0,0,1-5.88,6.42,17.68,17.68,0,0,1-6.53,1,20.36,20.36,0,0,1-4.71-.51c-1.43-.34-2.68-.66-3.76-1V580c.64.17,1.37.37,2.18.61s1.71.43,2.68.61a18.33,18.33,0,0,0,3.14.25,12.92,12.92,0,0,0,6-1.06,5.12,5.12,0,0,0,2.53-2.63,8.78,8.78,0,0,0,.6-3.17v-4.68l1.49,1.6a16.12,16.12,0,0,1-2.86,1.22,31.07,31.07,0,0,1-3.52,1A14.86,14.86,0,0,1,243.79,574.06Zm0-4.23a16.29,16.29,0,0,0,4-.55,14,14,0,0,0,4-1.7V549.17a3.73,3.73,0,0,0-.92-2.72,5,5,0,0,0-2.48-1.28,14.74,14.74,0,0,0-3.34-.36q-4.35,0-6.56,1.83a9,9,0,0,0-3,4.84,25.8,25.8,0,0,0-.78,6.48,15.8,15.8,0,0,0,2.09,8.56C238.2,568.72,240.53,569.83,243.79,569.83Z"/>
      <path class="cls-1" d="M286.73,585.47a6.08,6.08,0,0,1-1.61-.19c-.48-.13-.88-.26-1.2-.38v-4.24a8,8,0,0,0,1.08.39,5.18,5.18,0,0,0,1.49.19,4.53,4.53,0,0,0,3.28-1.22,9.73,9.73,0,0,0,2.11-3.27,38.2,38.2,0,0,0,1.58-4.55v1.86l-12.64-33h4.89l9.9,27.32h-.89l9.84-27.32h4.29l-12.76,35.15a20,20,0,0,1-3,5.77,9.76,9.76,0,0,1-3.28,2.73A7.56,7.56,0,0,1,286.73,585.47Z"/>
      <path class="cls-1" d="M326.15,574.06q-7,0-10.35-4.46t-3.37-12.41q0-8.34,3.55-12.5t10-4.17a13.64,13.64,0,0,1,7.87,2.08,12,12,0,0,1,4.47,5.84,24.36,24.36,0,0,1,1.43,8.75q0,7.89-3.55,12.38T326.15,574.06Zm-.06-4.23a8.57,8.57,0,0,0,5.66-1.7,9.26,9.26,0,0,0,2.89-4.56,21.83,21.83,0,0,0,.87-6.38,21.47,21.47,0,0,0-.9-6.57,8.43,8.43,0,0,0-2.95-4.33,9.07,9.07,0,0,0-5.57-1.54,8.59,8.59,0,0,0-5.61,1.67,9,9,0,0,0-2.89,4.45,21.22,21.22,0,0,0-.87,6.32,17.69,17.69,0,0,0,2.09,9.14Q320.9,569.82,326.09,569.83Z"/>
      <path class="cls-1" d="M360.62,574.06a14.19,14.19,0,0,1-6.74-1.48,9.89,9.89,0,0,1-4.27-4.29,15,15,0,0,1-1.46-6.93V541.09h4.29v19.24c0,3.25.67,5.64,2,7.15s3.39,2.28,6.18,2.28,4.84-.76,6.17-2.28,2-3.9,2-7.15V541.09h4.29v20.27q0,6.09-3.25,9.39T360.62,574.06Z"/>
      <path class="cls-1" d="M382.92,573.1V543.66c.48-.21,1.4-.58,2.77-1.09a38.16,38.16,0,0,1,4.95-1.41,27.49,27.49,0,0,1,6-.64,3.52,3.52,0,0,1,1,.13l1,.25V545a24.14,24.14,0,0,0-3-.2,26,26,0,0,0-2.83.16c-.92.11-1.83.25-2.74.42l-2.75.51v27.2Z"/>
      <path class="cls-1" d="M431.7,574.06a17.72,17.72,0,0,1-5.4-.71,25.54,25.54,0,0,1-4.5-2v-4.87c1.23.73,2.33,1.35,3.28,1.86a12,12,0,0,0,2.92,1.12,14.6,14.6,0,0,0,3.4.36,7.81,7.81,0,0,0,4.86-1.42,4.36,4.36,0,0,0,1.88-3.65,3.85,3.85,0,0,0-.92-2.76,7.49,7.49,0,0,0-2.36-1.6l-3-1.35c-1.15-.34-2.32-.71-3.49-1.12a13.83,13.83,0,0,1-3.22-1.6,7.76,7.76,0,0,1-2.36-2.57,8.24,8.24,0,0,1-.89-4.07,8.8,8.8,0,0,1,.92-4.17,8.61,8.61,0,0,1,2.42-2.85A9.83,9.83,0,0,1,428.6,541a13.81,13.81,0,0,1,3.7-.51,12.11,12.11,0,0,1,4.59.77c1.27.51,2.58,1.09,3.93,1.73v4.62c-1.51-.86-2.86-1.55-4.05-2.09a10.33,10.33,0,0,0-4.23-.8,8.94,8.94,0,0,0-4.39,1.06,3.46,3.46,0,0,0-1.94,3.24,4,4,0,0,0,1,2.85,6.67,6.67,0,0,0,2.59,1.67c1.08.4,2.23.8,3.46,1.18,1,.35,2,.72,3.1,1.13a12.38,12.38,0,0,1,3,1.6,7.57,7.57,0,0,1,2.24,2.6,8.54,8.54,0,0,1,.86,4.1,9.23,9.23,0,0,1-1.61,5.61,9.35,9.35,0,0,1-4.08,3.24A13.13,13.13,0,0,1,431.7,574.06Z"/>
      <path class="cls-1" d="M461,574.06a18,18,0,0,1-4-.45,11.3,11.3,0,0,1-3.7-1.54,8.24,8.24,0,0,1-2.75-3,9.89,9.89,0,0,1-1-4.78,12.65,12.65,0,0,1,1.4-6.38,8.09,8.09,0,0,1,3.88-3.46,14.29,14.29,0,0,1,5.69-1.06,23.78,23.78,0,0,1,4.24.32,14.07,14.07,0,0,1,3.19.93,15.17,15.17,0,0,1,2.53,1.38l.84,4.23a12.14,12.14,0,0,0-4-1.89,19,19,0,0,0-5.69-.8,9.39,9.39,0,0,0-5.79,1.54,5.28,5.28,0,0,0-2,4.48,5.56,5.56,0,0,0,1.23,3.79,6.59,6.59,0,0,0,3.1,2,13.13,13.13,0,0,0,3.84.57,21.25,21.25,0,0,0,5.88-.61,2.63,2.63,0,0,0,2-2.79V551.87q0-3.72-2-5.45a8.63,8.63,0,0,0-5.79-1.73,18.76,18.76,0,0,0-5,.73,12.3,12.3,0,0,0-4.57,2.34v-4.61a13.86,13.86,0,0,1,4.95-2,28.34,28.34,0,0,1,6-.67,15.34,15.34,0,0,1,3.63.41,10.84,10.84,0,0,1,3,1.22,7.93,7.93,0,0,1,2.23,2.05,9.41,9.41,0,0,1,1.43,2.89,12.37,12.37,0,0,1,.51,3.69V566.3a6.43,6.43,0,0,1-1.88,5.06,9.52,9.52,0,0,1-4.89,2.18A37.69,37.69,0,0,1,461,574.06Z"/>
      <path class="cls-1" d="M488.41,573.1h-4.29V528.91h4.29Z"/>
      <path class="cls-1" d="M510.54,574.06a13.83,13.83,0,0,1-7.34-1.89,12.2,12.2,0,0,1-4.77-5.68,23.41,23.41,0,0,1-1.67-9.43q0-8.26,3.49-12.41a13.46,13.46,0,0,1,17.24-1.82,12.68,12.68,0,0,1,4.14,6.22,27.73,27.73,0,0,1,1.19,8.85H498.91l.3-4.24H520l-1.67.65c-.12-3.21-.86-5.61-2.24-7.19s-3.46-2.37-6.29-2.37A9.35,9.35,0,0,0,505,545.9a7,7,0,0,0-2.89,4,26.21,26.21,0,0,0-.95,8q0,5.83,2.53,8.88a8.76,8.76,0,0,0,7.13,3.05,21.18,21.18,0,0,0,4.05-.36,16.89,16.89,0,0,0,3.4-1,17.49,17.49,0,0,0,2.74-1.41v4.74a19.66,19.66,0,0,1-4.74,1.67A25.85,25.85,0,0,1,510.54,574.06Z"/>
      <path class="cls-1" d="M539.58,574.06a17.72,17.72,0,0,1-5.4-.71,25.54,25.54,0,0,1-4.5-2v-4.87c1.23.73,2.33,1.35,3.28,1.86a12,12,0,0,0,2.92,1.12,14.6,14.6,0,0,0,3.4.36,7.81,7.81,0,0,0,4.86-1.42,4.34,4.34,0,0,0,1.88-3.65,3.85,3.85,0,0,0-.92-2.76,7.49,7.49,0,0,0-2.36-1.6l-3-1.35c-1.15-.34-2.32-.71-3.49-1.12a13.83,13.83,0,0,1-3.22-1.6,7.63,7.63,0,0,1-2.35-2.57,8.13,8.13,0,0,1-.9-4.07,8.8,8.8,0,0,1,.92-4.17,8.61,8.61,0,0,1,2.42-2.85,9.83,9.83,0,0,1,3.34-1.64,13.81,13.81,0,0,1,3.7-.51,12.11,12.11,0,0,1,4.59.77c1.27.51,2.58,1.09,3.94,1.73v4.62c-1.52-.86-2.87-1.55-4.06-2.09a10.33,10.33,0,0,0-4.23-.8,9,9,0,0,0-4.39,1.06,3.46,3.46,0,0,0-1.94,3.24,4,4,0,0,0,1,2.85,6.67,6.67,0,0,0,2.59,1.67c1.08.4,2.23.8,3.46,1.18,1,.35,2,.72,3.1,1.13a12.38,12.38,0,0,1,3,1.6,7.57,7.57,0,0,1,2.24,2.6,8.54,8.54,0,0,1,.87,4.1,9.29,9.29,0,0,1-1.61,5.61,9.43,9.43,0,0,1-4.09,3.24A13.13,13.13,0,0,1,539.58,574.06Z"/>
      <rect class="cls-2" x="107.18" y="4.06" width="91.35" height="178.93" rx="4.47" transform="translate(-9.45 17.58) rotate(-6.39)"/>
      <rect class="cls-3" x="222.77" y="69.08" width="91.35" height="101.21" rx="4.47" transform="translate(-11.65 30.6) rotate(-6.39)"/>
      <rect class="cls-4" x="333.6" y="25.09" width="91.35" height="131.94" rx="4.47" transform="translate(-7.77 42.74) rotate(-6.39)"/>
      <rect class="cls-5" x="353.6" y="180.31" width="91.35" height="178.93" rx="4.47" transform="translate(-27.53 46.08) rotate(-6.39)"/>
      <rect class="cls-6" x="237.12" y="193.71" width="91.18" height="101.21" rx="4.47" transform="translate(-25.42 32.96) rotate(-6.39)"/>
      <rect class="cls-7" x="127.18" y="206.27" width="91.35" height="131.94" rx="4.47" transform="translate(-29.2 20.91) rotate(-6.39)"/>
    </g>
  </g>
</svg>