<svg xmlns="http://www.w3.org/2000/svg" xmlns:xlink="http://www.w3.org/1999/xlink" width="603" height="228" viewBox="0 0 603 228"><defs><filter id="a" x="-9" y="-6" width="621" height="246" filterUnits="userSpaceOnUse"><feOffset dy="3" input="SourceAlpha"/><feGaussianBlur stdDeviation="3" result="b"/><feFlood flood-opacity="0.161"/><feComposite operator="in" in2="b"/><feComposite in="SourceGraphic"/></filter><clipPath id="c"><g transform="matrix(1, 0, 0, 1, 0, 0)" filter="url(#a)"><rect width="603" height="228" rx="6" transform="translate(-6204 -19205)" fill="#fff" stroke="#d9d9d9" stroke-width="1"/></g></clipPath><clipPath id="d"><path d="M315.553,156.219a1.233,1.233,0,0,0,.628.9,4.352,4.352,0,0,1,1.616-1.159,1.65,1.65,0,0,1-.527-1.012,5.247,5.247,0,0,0-1.717,1.266" transform="translate(-315.553 -154.953)" fill="none"/></clipPath><linearGradient id="e" x1="-83.667" y1="63.864" x2="-83.402" y2="63.864" gradientUnits="objectBoundingBox"><stop offset="0" stop-color="#ff5c5c"/><stop offset="0.293" stop-color="#f34444"/><stop offset="0.907" stop-color="#d70909"/><stop offset="1" stop-color="#d30000"/></linearGradient><clipPath id="f"><path d="M91.778,59.082a4.108,4.108,0,0,1,1.4,1.255A1.544,1.544,0,0,1,94,59.646a4.929,4.929,0,0,0-1.514-1.325c-.329.1-.511.331-.706.761" transform="translate(-91.778 -58.321)" fill="none"/></clipPath><linearGradient id="g" x1="-25.216" y1="92.14" x2="-24.94" y2="92.14" xlink:href="#e"/><clipPath id="h"><path d="M332.861,37.841a2.156,2.156,0,0,0,1.037.939,3.207,3.207,0,0,1,1.675-.6,5.6,5.6,0,0,1-1.762-1.383,1.417,1.417,0,0,0-.95,1.048" transform="translate(-332.861 -36.793)" fill="none"/></clipPath><linearGradient id="i" x1="-83.23" y1="87.852" x2="-82.979" y2="87.852" xlink:href="#e"/><clipPath id="j"><path d="M102.872,306.678a2.187,2.187,0,0,1-.622,1.042,3.813,3.813,0,0,1,1.526-.032.966.966,0,0,0,.048-.962,2.046,2.046,0,0,0-.594-.108,1.062,1.062,0,0,0-.358.06" transform="translate(-102.25 -306.618)" fill="none"/></clipPath><linearGradient id="k" x1="-72.29" y1="40.681" x2="-71.585" y2="40.681" xlink:href="#e"/><clipPath id="l"><path d="M38.9,219.661a2.065,2.065,0,0,0,.866-.67,1.732,1.732,0,0,1-.25-1.076,1.158,1.158,0,0,1-1-.016,5.146,5.146,0,0,0,.38,1.762" transform="translate(-38.522 -217.899)" fill="none"/></clipPath><linearGradient id="m" x1="-18.565" y1="70.793" x2="-18.079" y2="70.793" xlink:href="#e"/><clipPath id="n"><path d="M178.964,35.2a3.3,3.3,0,0,1,1.635,1.342,2.228,2.228,0,0,1,1.53-1.138,9.9,9.9,0,0,0-2.63-2.233,3.953,3.953,0,0,0-.534,2.029" transform="translate(-178.962 -33.166)" fill="none"/></clipPath><linearGradient id="o" x1="-31.843" y1="65.196" x2="-31.665" y2="65.196" xlink:href="#e"/><clipPath id="p"><path d="M185.668,136.758a7.839,7.839,0,0,1,1.916.92,1.418,1.418,0,0,0,.7-.761,9.311,9.311,0,0,0-1.98-1.021,2.535,2.535,0,0,1-.632.863" transform="translate(-185.668 -135.895)" fill="none"/></clipPath><linearGradient id="q" x1="-54.425" y1="67.645" x2="-54.132" y2="67.645" xlink:href="#e"/><clipPath id="r"><path d="M278.942,100.258a21.119,21.119,0,0,0,.085,5.072,5.743,5.743,0,0,1,2.41.337,17.851,17.851,0,0,1-.219-4.833,3.117,3.117,0,0,0-1.861-.591c-.133,0-.271.006-.415.015" transform="translate(-278.826 -100.243)" fill="none"/></clipPath><linearGradient id="s" x1="-85.452" y1="44.445" x2="-85.145" y2="44.445" xlink:href="#e"/><clipPath id="t"><path d="M326.834,145.615a5.553,5.553,0,0,1,1.686.239c-.249-.5-.149-.876.277-1.549a9.65,9.65,0,0,1-3.024-.794,3.731,3.731,0,0,0,1.062,2.1" transform="translate(-325.772 -143.512)" fill="none"/></clipPath><linearGradient id="u" x1="-100.76" y1="63.198" x2="-100.451" y2="63.198" xlink:href="#e"/><clipPath id="v"><path d="M101.733,22.95a4.705,4.705,0,0,0,2.112,2.082,6.989,6.989,0,0,1,2.105-.393c-.5-.5-.529-.983-.29-1.959a12.14,12.14,0,0,1-3.926.27" transform="translate(-101.733 -22.68)" fill="none"/></clipPath><linearGradient id="w" x1="-18.056" y1="95.524" x2="-17.879" y2="95.524" xlink:href="#e"/><clipPath id="x"><path d="M387.885,194.048a9.3,9.3,0,0,0,2.686.856c-.216-.746-.206-1.161.209-1.608a6.974,6.974,0,0,1-2.662-.66,2.241,2.241,0,0,0-.232,1.413" transform="translate(-387.85 -192.635)" fill="none"/></clipPath><linearGradient id="y" x1="-110.333" y1="48.405" x2="-110.049" y2="48.405" xlink:href="#e"/><clipPath id="z"><path d="M213.888,88.78c.725.452,1.022.8,1.01,1.47a7.689,7.689,0,0,1,2.667-1.415,2.479,2.479,0,0,0-.849-1.326,10.215,10.215,0,0,0-2.828,1.271" transform="translate(-213.888 -87.509)" fill="none"/></clipPath><linearGradient id="aa" x1="-38.632" y1="60.551" x2="-38.451" y2="60.551" xlink:href="#e"/><clipPath id="ab"><path d="M40.317,187.927a1.137,1.137,0,0,1,.344,1.1,3.7,3.7,0,0,0,1.4-.927,1.033,1.033,0,0,0-.381-.956,2.707,2.707,0,0,1-1.365.779" transform="translate(-40.317 -187.148)" fill="none"/></clipPath><linearGradient id="ac" x1="-13.316" y1="67.986" x2="-12.982" y2="67.986" xlink:href="#e"/><clipPath id="ad"><path d="M109.263,13.009a1.677,1.677,0,0,0,1.671.03,4.4,4.4,0,0,1-.305-2.531,1.847,1.847,0,0,1-1.87-.183,6.03,6.03,0,0,0,.5,2.683" transform="translate(-108.746 -10.326)" fill="none"/></clipPath><linearGradient id="ae" x1="-35.671" y1="98.68" x2="-35.342" y2="98.68" xlink:href="#e"/><clipPath id="af"><path d="M20.889,56.037a1.437,1.437,0,0,1,1.147.779,4.21,4.21,0,0,0,1.254-1.876,2.059,2.059,0,0,0-1.15-.738,3.85,3.85,0,0,1-1.251,1.836" transform="translate(-20.889 -54.201)" fill="none"/></clipPath><linearGradient id="ag" x1="-4.766" y1="81.721" x2="-4.531" y2="81.721" xlink:href="#e"/><clipPath id="ah"><path d="M191.157,67.789a1.443,1.443,0,0,0-.051.959,2.7,2.7,0,0,1,1.555.126,1.012,1.012,0,0,1,.077-.97,3.91,3.91,0,0,0-1.059-.178,2.087,2.087,0,0,0-.522.064" transform="translate(-191.047 -67.725)" fill="none"/></clipPath><linearGradient id="ai" x1="-129.181" y1="151.925" x2="-128.505" y2="151.925" xlink:href="#e"/><clipPath id="aj"><path d="M336.146,109.5a3.552,3.552,0,0,1-.126,2.541A12.4,12.4,0,0,0,340,111.06a5.686,5.686,0,0,0-.759-2.324,7.223,7.223,0,0,1-3.1.761" transform="translate(-336.02 -108.736)" fill="none"/></clipPath><linearGradient id="ak" x1="-60.699" y1="58.539" x2="-60.518" y2="58.539" xlink:href="#e"/><clipPath id="al"><path d="M392.724,76.309a3.531,3.531,0,0,1-.559,2.463,12.3,12.3,0,0,0,4.063-.276,5.643,5.643,0,0,0-.345-2.4,7.153,7.153,0,0,1-3.159.215" transform="translate(-392.165 -76.094)" fill="none"/></clipPath><linearGradient id="am" x1="-76.818" y1="91.175" x2="-76.622" y2="91.175" xlink:href="#e"/><clipPath id="an"><path d="M31.441,107.447a9.268,9.268,0,0,0,1.992,1.789,2.209,2.209,0,0,0,.849-.824,5.281,5.281,0,0,1-2.163-1.646,1.15,1.15,0,0,1-.678.681" transform="translate(-31.441 -106.766)" fill="none"/></clipPath><linearGradient id="ao" x1="-6.842" y1="62.868" x2="-6.621" y2="62.868" xlink:href="#e"/><clipPath id="ap"><path d="M237.2,26.676a1.175,1.175,0,0,1,.886.418,9.418,9.418,0,0,0,1.034-2.526,2.257,2.257,0,0,0-1.082-.533,5.407,5.407,0,0,1-.839,2.641" transform="translate(-237.198 -24.035)" fill="none"/></clipPath><linearGradient id="aq" x1="-55.003" y1="106.575" x2="-54.77" y2="106.575" xlink:href="#e"/><clipPath id="ar"><path d="M464.942,174.3a1.19,1.19,0,0,0,.607-.156,2.389,2.389,0,0,1-.41-1.337.648.648,0,0,1-.521-.033,2.858,2.858,0,0,0,.324,1.526" transform="translate(-464.609 -172.773)" fill="none"/></clipPath><linearGradient id="as" x1="-282.732" y1="104.656" x2="-282.123" y2="104.656" xlink:href="#e"/><clipPath id="at"><path d="M72.2,17.366a.753.753,0,0,1,0,.606,3.315,3.315,0,0,0,1.743-.492,1.382,1.382,0,0,0-.226-.691,2.767,2.767,0,0,1-1.519.576" transform="translate(-72.2 -16.79)" fill="none"/></clipPath><linearGradient id="au" x1="-29.016" y1="182.287" x2="-28.613" y2="182.287" xlink:href="#e"/><clipPath id="av"><path d="M82.289,131.2c.8.206,1.511.743,2.565,2.446a4.221,4.221,0,0,0,1.342-2.29,7.516,7.516,0,0,0-2.948-2.39,3.851,3.851,0,0,1-.959,2.233" transform="translate(-82.289 -128.965)" fill="none"/></clipPath><linearGradient id="aw" x1="-10.922" y1="36.53" x2="-10.787" y2="36.53" xlink:href="#e"/><clipPath id="ax"><path d="M228.683,147.584a3.719,3.719,0,0,0,1.464,1.174,1.907,1.907,0,0,1,.47-1.107c-.4-.1-.749-.363-1.275-1.2a2.09,2.09,0,0,0-.659,1.136" transform="translate(-228.683 -146.448)" fill="none"/></clipPath><linearGradient id="ay" x1="-62.257" y1="68.991" x2="-61.984" y2="68.991" xlink:href="#e"/><clipPath id="az"><path d="M325.106,218.83a3.54,3.54,0,0,0,.3,2.256,3.8,3.8,0,0,1,2.323-.552,5.36,5.36,0,0,0,.064-2.186,7.092,7.092,0,0,1-2.688.482" transform="translate(-325.04 -218.348)" fill="none"/></clipPath><linearGradient id="ba" x1="-79.464" y1="45.221" x2="-79.219" y2="45.221" xlink:href="#e"/><clipPath id="bb"><path d="M126.613,36.426a2.773,2.773,0,0,0,.9,1.539,2.989,2.989,0,0,1,1.511-1.1,4.193,4.193,0,0,0-.617-1.6,5.58,5.58,0,0,1-1.8,1.164" transform="translate(-126.613 -35.262)" fill="none"/></clipPath><linearGradient id="bc" x1="-29.722" y1="82.583" x2="-29.486" y2="82.583" xlink:href="#e"/><clipPath id="bd"><path d="M58.452,34.057a5.557,5.557,0,0,0,1.687,1.649c.227-.081.333-.238.5-.5a6.265,6.265,0,0,1-1.647-1.547,1.024,1.024,0,0,1-.537.4" transform="translate(-58.452 -33.66)" fill="none"/></clipPath><linearGradient id="be" x1="-15.959" y1="99.916" x2="-15.684" y2="99.916" xlink:href="#e"/><clipPath id="bf"><path d="M18.464,288.863a7.613,7.613,0,0,1,2.154,1.7,1.241,1.241,0,0,1,.607-.536,6.755,6.755,0,0,0-2.211-1.82c-.264.122-.377.322-.549.656" transform="translate(-18.464 -288.207)" fill="none"/></clipPath><linearGradient id="bg" x1="-4.075" y1="24.179" x2="-3.848" y2="24.179" xlink:href="#e"/><clipPath id="bh"><path d="M18.65,227.6a13.809,13.809,0,0,1,3.437,2.345,2.5,2.5,0,0,0,.354-2.094,15.51,15.51,0,0,1-3.389-1.355,2.3,2.3,0,0,1-.4,1.1" transform="translate(-18.65 -226.492)" fill="none"/></clipPath><linearGradient id="bi" x1="-3.287" y1="28.162" x2="-3.107" y2="28.162" xlink:href="#e"/><clipPath id="bj"><path d="M243.888,3.591a8.469,8.469,0,0,1,1.826,1.8,1.542,1.542,0,0,0,.447-1.232,9.537,9.537,0,0,1-1.906-1.195,1.434,1.434,0,0,1-.367.625" transform="translate(-243.888 -2.966)" fill="none"/></clipPath><linearGradient id="bk" x1="-61.663" y1="100.669" x2="-61.41" y2="100.669" xlink:href="#e"/><clipPath id="bl"><path d="M295.1,151.351a7.156,7.156,0,0,1,3.167.793,2.683,2.683,0,0,1,.7-1.733,8.564,8.564,0,0,0-3.406-.8,2.015,2.015,0,0,0-.466,1.745" transform="translate(-295.089 -149.606)" fill="none"/></clipPath><linearGradient id="bm" x1="-72.342" y1="45.882" x2="-72.097" y2="45.882" gradientUnits="objectBoundingBox"><stop offset="0" stop-color="#4d8eff"/><stop offset="0.428" stop-color="#3e76ff"/><stop offset="1" stop-color="#2850ff"/></linearGradient><clipPath id="bn"><path d="M126.4,139.53a1.919,1.919,0,0,0,.307,1.695,6.807,6.807,0,0,1,3.055-.6,2.565,2.565,0,0,1-.1-1.782h-.016a8.15,8.15,0,0,0-3.249.691" transform="translate(-126.304 -138.839)" fill="none"/></clipPath><linearGradient id="bo" x1="-26.009" y1="68.121" x2="-25.802" y2="68.121" xlink:href="#bm"/><clipPath id="bp"><path d="M306.06,120.95a1.625,1.625,0,0,0,1.043.21,2.455,2.455,0,0,1,.859-1.048,4.248,4.248,0,0,1-1.691-.216,1.079,1.079,0,0,0-.211,1.054" transform="translate(-306.01 -119.896)" fill="none"/></clipPath><linearGradient id="bq" x1="-150.031" y1="101.603" x2="-149.541" y2="101.603" xlink:href="#bm"/><clipPath id="br"><path d="M312.86,60.543a3.19,3.19,0,0,1-.062,1.772A5.551,5.551,0,0,1,314.73,61.2a1.409,1.409,0,0,0-.617-1.266,2.132,2.132,0,0,0-1.253.609" transform="translate(-312.798 -59.934)" fill="none"/></clipPath><linearGradient id="bs" x1="-91.564" y1="91.574" x2="-91.27" y2="91.574" xlink:href="#bm"/><clipPath id="bt"><path d="M249.5,75.821a4.433,4.433,0,0,0,1.5,1.8A3.7,3.7,0,0,1,253.286,77a2.486,2.486,0,0,1-.044-2.133,11.069,11.069,0,0,0-3.744.951" transform="translate(-249.498 -74.87)" fill="none"/></clipPath><linearGradient id="bu" x1="-45.837" y1="68.789" x2="-45.653" y2="68.789" xlink:href="#bm"/><clipPath id="bv"><path d="M0,244.587v.065a5.9,5.9,0,0,0,.039.607,2.1,2.1,0,0,0,1.024-.423,1.736,1.736,0,0,1,.04-1.114,1.174,1.174,0,0,1-.965-.28A5.7,5.7,0,0,0,0,244.587" transform="translate(0 -243.442)" fill="none"/></clipPath><linearGradient id="bw" x1="0.017" y1="67.143" x2="0.737" y2="67.143" xlink:href="#bm"/><clipPath id="bx"><path d="M306.374,34.07a1.742,1.742,0,0,0,.553,1.137,11.359,11.359,0,0,0,2.057-1.794,3.068,3.068,0,0,1-.7-1.108,9.615,9.615,0,0,1-1.913,1.765" transform="translate(-306.374 -32.305)" fill="none"/></clipPath><linearGradient id="by" x1="-64.978" y1="76.299" x2="-64.765" y2="76.299" xlink:href="#bm"/><clipPath id="bz"><path d="M82.4,246.3a4.539,4.539,0,0,1,.748,1.768,14.079,14.079,0,0,1,3.182-2.107,2.553,2.553,0,0,0-.533-1.774,16.729,16.729,0,0,0-3.4,2.113" transform="translate(-82.399 -244.185)" fill="none"/></clipPath><linearGradient id="ca" x1="-12.427" y1="23.048" x2="-12.274" y2="23.048" xlink:href="#bm"/><clipPath id="cb"><path d="M11.693,335.447a3.918,3.918,0,0,1,.017,1.2c.323-.228.594-.2,1.11.025a6.815,6.815,0,0,1,.223-2.2,2.633,2.633,0,0,0-1.35.97" transform="translate(-11.693 -334.477)" fill="none"/></clipPath><linearGradient id="cc" x1="-6.604" y1="21.61" x2="-6.036" y2="21.61" xlink:href="#bm"/><clipPath id="cd"><path d="M365.237,137.016a13.178,13.178,0,0,1,1.684,3.922,5.1,5.1,0,0,0,1.374-2.908,7.6,7.6,0,0,1-1.158-2.015c-.331.689-.817.894-1.9,1" transform="translate(-365.237 -136.016)" fill="none"/></clipPath><linearGradient id="ce" x1="-57.71" y1="36.645" x2="-57.552" y2="36.645" xlink:href="#bm"/><clipPath id="cf"><path d="M343.414,82.481a6.141,6.141,0,0,0,1.541,1.057c.006-.515.09-.776.44-.981a4.632,4.632,0,0,1-1.564-.928,1.485,1.485,0,0,0-.417.852" transform="translate(-343.414 -81.629)" fill="none"/></clipPath><linearGradient id="cg" x1="-106.693" y1="96.269" x2="-106.382" y2="96.269" xlink:href="#bm"/><clipPath id="ch"><path d="M379.326,116.208a1.264,1.264,0,0,0,.738.32,5.2,5.2,0,0,0,.835-1.348c-.437.016-.661-.047-.848-.334a3.95,3.95,0,0,1-.725,1.362" transform="translate(-379.326 -114.846)" fill="none"/></clipPath><linearGradient id="ci" x1="-140.624" y1="105.834" x2="-140.253" y2="105.834" xlink:href="#bm"/><clipPath id="cj"><path d="M405.086,292.821a3.485,3.485,0,0,0,.495,1.5.968.968,0,0,0,.96-.11,2.543,2.543,0,0,1-.368-1.428,1.068,1.068,0,0,1-1.086.039" transform="translate(-405.086 -292.782)" fill="none"/></clipPath><linearGradient id="ck" x1="-186.042" y1="42.471" x2="-185.582" y2="42.471" xlink:href="#bm"/><clipPath id="cl"><path d="M14.235,362.965a3.549,3.549,0,0,0,1.451.731,1,1,0,0,0,.619-.778A2.625,2.625,0,0,1,15,362.147a1.1,1.1,0,0,1-.761.818" transform="translate(-14.235 -362.147)" fill="none"/></clipPath><linearGradient id="cm" x1="-4.777" y1="10.259" x2="-4.436" y2="10.259" xlink:href="#bm"/><clipPath id="cn"><path d="M133.079,77.511a5.455,5.455,0,0,0,.28,2.905,2.665,2.665,0,0,0,1.757-.2,4.973,4.973,0,0,1-.251-2.862,1.859,1.859,0,0,1-1.786.159" transform="translate(-133.012 -77.352)" fill="none"/></clipPath><linearGradient id="co" x1="-42.855" y1="75.732" x2="-42.532" y2="75.732" xlink:href="#bm"/><clipPath id="cp"><path d="M315.715,99.894a3.074,3.074,0,0,0,.147,1.64,1.5,1.5,0,0,0,.993-.107,2.815,2.815,0,0,1-.132-1.617,1.05,1.05,0,0,1-1.008.084" transform="translate(-315.673 -99.81)" fill="none"/></clipPath><linearGradient id="cq" x1="-182.386" y1="125.118" x2="-181.808" y2="125.118" xlink:href="#bm"/><clipPath id="cr"><path d="M422.109,75.641a4.893,4.893,0,0,0,1.973.725,6.209,6.209,0,0,1,1.136-2.5,3.062,3.062,0,0,1-1.649-1.439,10.632,10.632,0,0,0-1.46,3.213" transform="translate(-422.109 -72.428)" fill="none"/></clipPath><linearGradient id="cs" x1="-70.341" y1="57.988" x2="-70.174" y2="57.988" xlink:href="#bm"/><clipPath id="ct"><path d="M297.033,73.948a5.25,5.25,0,0,1,1.685,1.615,2.6,2.6,0,0,1,1.618-.918,9.071,9.071,0,0,0-2.165-2.076,4.156,4.156,0,0,0-1.138,1.379" transform="translate(-297.033 -72.569)" fill="none"/></clipPath><linearGradient id="cu" x1="-54.674" y1="59.563" x2="-54.489" y2="59.563" xlink:href="#bm"/><clipPath id="cv"><path d="M405.966,248.551a.7.7,0,0,1,.446.377,5.607,5.607,0,0,0,.987-1.294,1.332,1.332,0,0,0-.541-.474,3.22,3.22,0,0,1-.891,1.391" transform="translate(-405.966 -247.16)" fill="none"/></clipPath><linearGradient id="cw" x1="-146.831" y1="55.165" x2="-146.469" y2="55.165" xlink:href="#bm"/><clipPath id="cx"><path d="M433.9,49.544a4.449,4.449,0,0,1,1.264,1.9.963.963,0,0,1,.726-.354,7.794,7.794,0,0,0-1.09-1.969,1.848,1.848,0,0,0-.9.422" transform="translate(-433.903 -49.122)" fill="none"/></clipPath><linearGradient id="cy" x1="-122.634" y1="94.022" x2="-122.351" y2="94.022" xlink:href="#bm"/><clipPath id="cz"><path d="M313.772.493a2.733,2.733,0,0,1,.155,1.594.742.742,0,0,1,.578.155,3.282,3.282,0,0,0-.017-1.786A1.335,1.335,0,0,0,314.2.425a1.468,1.468,0,0,0-.43.068" transform="translate(-313.772 -0.425)" fill="none"/></clipPath><linearGradient id="da" x1="-248.616" y1="172.065" x2="-247.823" y2="172.065" xlink:href="#bm"/><clipPath id="db"><path d="M205.424,31.667a2.4,2.4,0,0,0,.479,1.159,4.776,4.776,0,0,1,2.538-1.185,1.3,1.3,0,0,1-.081-1.042,5.719,5.719,0,0,0-2.935,1.067" transform="translate(-205.424 -30.6)" fill="none"/></clipPath><linearGradient id="dc" x1="-46.1" y1="91.951" x2="-45.875" y2="91.951" xlink:href="#bm"/><clipPath id="dd"><path d="M26.274,383.885a4.562,4.562,0,0,0,.374,2.273,2.331,2.331,0,0,1,1.335-.627,2.738,2.738,0,0,1-.178-2.144h-.028a2.578,2.578,0,0,0-1.5.5" transform="translate(-26.267 -383.387)" fill="none"/></clipPath><linearGradient id="de" x1="-9.805" y1="2.85" x2="-9.428" y2="2.85" xlink:href="#bm"/><clipPath id="df"><path d="M84.009,42.027a3.479,3.479,0,0,0,1.238,1.247,1.779,1.779,0,0,1,.553-.981c-.358-.134-.659-.416-1.059-1.252a1.951,1.951,0,0,0-.731.987" transform="translate(-84.009 -41.04)" fill="none"/></clipPath><linearGradient id="dg" x1="-24.093" y1="102.042" x2="-23.804" y2="102.042" xlink:href="#bm"/><clipPath id="dh"><path d="M419.894,189.277a3.076,3.076,0,0,0,1.08,1.656,3.3,3.3,0,0,1,1.617-1.3,4.689,4.689,0,0,0-.769-1.74,6.207,6.207,0,0,1-1.927,1.386" transform="translate(-419.894 -187.891)" fill="none"/></clipPath><linearGradient id="di" x1="-87.111" y1="42.013" x2="-86.904" y2="42.013" xlink:href="#bm"/><clipPath id="dj"><path d="M78.569,194.017a6.33,6.33,0,0,1,1.6,1.819,3.132,3.132,0,0,0,1.574-1.261,3.363,3.363,0,0,1-1.483-1.511,4.77,4.77,0,0,0-1.691.953" transform="translate(-78.569 -193.064)" fill="none"/></clipPath><linearGradient id="dk" x1="-15.21" y1="39.712" x2="-15.015" y2="39.712" xlink:href="#bm"/><clipPath id="dl"><path d="M89.658,224.167a1.949,1.949,0,0,1,1.048.715,10.586,10.586,0,0,0,1.912-4.052,1.9,1.9,0,0,0-1.205-.583,11.888,11.888,0,0,1-1.754,3.92" transform="translate(-89.658 -220.247)" fill="none"/></clipPath><linearGradient id="dm" x1="-13.178" y1="28.9" x2="-13.028" y2="28.9" xlink:href="#bm"/><clipPath id="dn"><path d="M92.124,283.949a7.912,7.912,0,0,0,2.569,2.131c.308-.141.44-.375.643-.761a8.884,8.884,0,0,1-2.5-1.992,1.451,1.451,0,0,1-.71.622" transform="translate(-92.124 -283.327)" fill="none"/></clipPath><linearGradient id="do" x1="-17.822" y1="21.722" x2="-17.628" y2="21.722" xlink:href="#bm"/><clipPath id="dp"><path d="M242.751,229.007a7.689,7.689,0,0,1,1.945,1.247,1.394,1.394,0,0,0,.163-1.168,8.527,8.527,0,0,1-1.9-.7,1.289,1.289,0,0,1-.206.618" transform="translate(-242.751 -228.389)" fill="none"/></clipPath><linearGradient id="dq" x1="-81.213" y1="50.603" x2="-80.878" y2="50.603" xlink:href="#bm"/><clipPath id="dr"><path d="M323.7,193.748a2.518,2.518,0,0,0,2.121-.244,15.494,15.494,0,0,1,.358-3.649,2.3,2.3,0,0,1-1.176-.08,13.892,13.892,0,0,1-1.3,3.973" transform="translate(-323.702 -189.775)" fill="none"/></clipPath><linearGradient id="ds" x1="-61.627" y1="61.694" x2="-61.436" y2="61.694" xlink:href="#bm"/><clipPath id="dt"><path d="M199.84,7.279a9.973,9.973,0,0,0,3.986.816,2.343,2.343,0,0,0,.48-2.043A8.312,8.312,0,0,1,200.6,5.24a3.132,3.132,0,0,1-.76,2.039" transform="translate(-199.84 -5.24)" fill="none"/></clipPath><linearGradient id="du" x1="-44.601" y1="63.751" x2="-44.378" y2="63.751" gradientUnits="objectBoundingBox"><stop offset="0" stop-color="#fc9512"/><stop offset="0.067" stop-color="#fc9b12"/><stop offset="0.697" stop-color="#fed419"/><stop offset="1" stop-color="#ffeb1c"/></linearGradient><clipPath id="dv"><path d="M456.885,131.665a1.5,1.5,0,0,0,1.344-.09,5.353,5.353,0,0,1-.2-2.429,2.011,2.011,0,0,1-1.395-.082,6.39,6.39,0,0,0,.251,2.6" transform="translate(-456.592 -129.064)" fill="none"/></clipPath><linearGradient id="dw" x1="-190.104" y1="73.629" x2="-189.688" y2="73.629" xlink:href="#du"/><clipPath id="dx"><path d="M281.09,216.462a1.33,1.33,0,0,0,1.1.747,2.022,2.022,0,0,0,.739-1.086,3.013,3.013,0,0,1-.779-1.479,5.274,5.274,0,0,1-1.058,1.818" transform="translate(-281.09 -214.644)" fill="none"/></clipPath><linearGradient id="dy" x1="-73.09" y1="49.996" x2="-72.829" y2="49.996" xlink:href="#du"/><clipPath id="dz"><path d="M453.646,167.7a2.016,2.016,0,0,0,1.927.591,3.057,3.057,0,0,0,.585-1.908,4.571,4.571,0,0,1-1.8-1.8,7.971,7.971,0,0,1-.717,3.112" transform="translate(-453.646 -164.589)" fill="none"/></clipPath><linearGradient id="ea" x1="-84.783" y1="53.174" x2="-84.596" y2="53.174" xlink:href="#du"/><clipPath id="eb"><path d="M334.02,59.186a2.652,2.652,0,0,1,1.563.678,1.794,1.794,0,0,1,.935-1.221,7.979,7.979,0,0,0-2.535-1.149,3.193,3.193,0,0,0,.037,1.692" transform="translate(-333.889 -57.494)" fill="none"/></clipPath><linearGradient id="ec" x1="-87.169" y1="83.104" x2="-86.908" y2="83.104" xlink:href="#du"/><clipPath id="ed"><path d="M29.282,312.547a2.13,2.13,0,0,0,.937.636,1.78,1.78,0,0,1,.974-.59,1.2,1.2,0,0,1-.3-.982,5.373,5.373,0,0,0-1.608.937" transform="translate(-29.282 -311.61)" fill="none"/></clipPath><linearGradient id="ee" x1="-9.653" y1="28.537" x2="-9.32" y2="28.537" xlink:href="#du"/><clipPath id="ef"><path d="M8.969,209.8a1.547,1.547,0,0,0,.7.877,10.07,10.07,0,0,0,1.433-1.951,2.728,2.728,0,0,1-.817-.824,8.52,8.52,0,0,1-1.315,1.9" transform="translate(-8.969 -207.9)" fill="none"/></clipPath><linearGradient id="eg" x1="-1.912" y1="45.364" x2="-1.677" y2="45.364" xlink:href="#du"/><clipPath id="eh"><path d="M51.1,362.063a3.786,3.786,0,0,1,1.358.851,11.778,11.778,0,0,1,1.168-2.964,2.123,2.123,0,0,0-1.214-.959,13.964,13.964,0,0,0-1.313,3.072" transform="translate(-51.098 -358.991)" fill="none"/></clipPath><linearGradient id="ei" x1="-8.885" y1="7.314" x2="-8.707" y2="7.314" xlink:href="#du"/><clipPath id="ej"><path d="M85.369,210.888a3.959,3.959,0,0,1-.614,1.053c.4-.029.621.139.951.6a6.909,6.909,0,0,1,1.344-1.791,4.22,4.22,0,0,0-.728-.073,2.132,2.132,0,0,0-.954.206" transform="translate(-84.755 -210.682)" fill="none"/></clipPath><linearGradient id="ek" x1="-25.417" y1="51.986" x2="-25.116" y2="51.986" xlink:href="#du"/><clipPath id="el"><path d="M167.51,13.329c.692.305.912.779,1.052,1.846a13.047,13.047,0,0,1,3.82-1.8,5.034,5.034,0,0,0-2.921-1.26,7.463,7.463,0,0,1-1.952,1.212" transform="translate(-167.51 -12.117)" fill="none"/></clipPath><linearGradient id="em" x1="-23.874" y1="60.047" x2="-23.732" y2="60.047" xlink:href="#du"/><clipPath id="en"><path d="M91.984,159.862c.383.091.564.2.656.5a3.556,3.556,0,0,1,.958-1.007,1.129,1.129,0,0,0-.563-.456,4.7,4.7,0,0,0-1.051.967" transform="translate(-91.984 -158.895)" fill="none"/></clipPath><linearGradient id="eo" x1="-34.733" y1="88.842" x2="-34.354" y2="88.842" xlink:href="#du"/><clipPath id="ep"><path d="M433.2,235.507a1,1,0,0,0,.223.6,4.144,4.144,0,0,0,1.241-.261c-.25-.243-.339-.408-.275-.676a3.126,3.126,0,0,1-1.188.334" transform="translate(-433.201 -235.173)" fill="none"/></clipPath><linearGradient id="eq" x1="-213.406" y1="99.493" x2="-212.913" y2="99.493" xlink:href="#du"/><clipPath id="er"><path d="M152.847,204.96a2.05,2.05,0,0,0-.153,2.038,5.384,5.384,0,0,1,3.113-.2,2.257,2.257,0,0,1,.349-2.27,5.991,5.991,0,0,0-.755-.05,8.931,8.931,0,0,0-2.555.483" transform="translate(-152.5 -204.477)" fill="none"/></clipPath><linearGradient id="es" x1="-32.717" y1="58.812" x2="-32.503" y2="58.812" xlink:href="#du"/><clipPath id="et"><path d="M35.4,168.171a1.8,1.8,0,0,1,.279,1.816,5.871,5.871,0,0,0,2.422-1.127,1.641,1.641,0,0,0-.374-1.592,4.311,4.311,0,0,1-2.327.9" transform="translate(-35.404 -167.268)" fill="none"/></clipPath><linearGradient id="eu" x1="-7.962" y1="53.024" x2="-7.734" y2="53.024" xlink:href="#du"/><clipPath id="ev"><path d="M430.9,344.333a3.945,3.945,0,0,0,2.013.632,1.919,1.919,0,0,0,.36-1.226,3.613,3.613,0,0,1-1.976-.64,1.344,1.344,0,0,1-.4,1.234" transform="translate(-430.898 -343.099)" fill="none"/></clipPath><linearGradient id="ew" x1="-144.392" y1="14.974" x2="-144.057" y2="14.974" xlink:href="#du"/><clipPath id="ex"><path d="M282.979,6.566a4.348,4.348,0,0,1,2.135,1.322,1.626,1.626,0,0,1,.825-1.334,4.774,4.774,0,0,0-2.182-1.326,2.321,2.321,0,0,0-.779,1.337" transform="translate(-282.979 -5.229)" fill="none"/></clipPath><linearGradient id="ey" x1="-61.59" y1="82.38" x2="-61.372" y2="82.38" xlink:href="#du"/><clipPath id="ez"><path d="M339.156,286.606a3.764,3.764,0,0,1,1.041,1.312,1.872,1.872,0,0,1,1.242-.494,6.5,6.5,0,0,0-1.34-1.689,3,3,0,0,0-.943.871" transform="translate(-339.156 -285.735)" fill="none"/></clipPath><linearGradient id="fa" x1="-89.016" y1="28.747" x2="-88.754" y2="28.747" xlink:href="#du"/><clipPath id="fb"><path d="M450.235,194.391a7.416,7.416,0,0,1,2.084,2.538,3.656,3.656,0,0,1,2.416-1.012,12.729,12.729,0,0,0-2.681-3.264,5.828,5.828,0,0,0-1.82,1.738" transform="translate(-450.235 -192.653)" fill="none"/></clipPath><linearGradient id="fc" x1="-59.923" y1="27.174" x2="-59.79" y2="27.174" xlink:href="#du"/><clipPath id="fd"><path d="M206.792,186.125a2.972,2.972,0,0,0,.553,1.5,7.165,7.165,0,0,1,3.223-1.77,1.562,1.562,0,0,1-.47-1.214,12.531,12.531,0,0,0-3.306,1.481" transform="translate(-206.792 -184.644)" fill="none"/></clipPath><linearGradient id="fe" x1="-36.014" y1="39.668" x2="-35.839" y2="39.668" xlink:href="#du"/><clipPath id="ff"><path d="M355.018,188.278a7.088,7.088,0,0,1,2.549,2.592,1.542,1.542,0,0,1,1.029-.772,12.432,12.432,0,0,0-2.3-2.748,2.959,2.959,0,0,0-1.281.928" transform="translate(-355.018 -187.35)" fill="none"/></clipPath><linearGradient id="fg" x1="-58.069" y1="34.016" x2="-57.905" y2="34.016" xlink:href="#du"/><clipPath id="fh"><path d="M347,151.526a2.486,2.486,0,0,1,1.133.9.675.675,0,0,1,.464-.277,2.969,2.969,0,0,0-1.17-1.115,1.241,1.241,0,0,0-.427.488" transform="translate(-346.998 -151.038)" fill="none"/></clipPath><linearGradient id="fi" x1="-136.25" y1="94.365" x2="-135.857" y2="94.365" xlink:href="#du"/><clipPath id="fj"><path d="M96.031,114.455a1.663,1.663,0,0,0,.132.865,3.345,3.345,0,0,1,1.918-.38.91.91,0,0,1,.118-.72,3.731,3.731,0,0,0-.659-.062,4.743,4.743,0,0,0-1.509.3" transform="translate(-96.02 -114.158)" fill="none"/></clipPath><linearGradient id="fk" x1="-33.234" y1="150.91" x2="-32.887" y2="150.91" xlink:href="#du"/><clipPath id="fl"><path d="M168.635,174.922a7.219,7.219,0,0,0,3.623.445,3.7,3.7,0,0,1-.357-2.311c-.757.238-1.612.166-3.341-.686a4.058,4.058,0,0,0,.075,2.552" transform="translate(-168.389 -172.37)" fill="none"/></clipPath><linearGradient id="fm" x1="-38.396" y1="42.595" x2="-38.168" y2="42.595" xlink:href="#du"/><clipPath id="fn"><path d="M385.09,286.344c.146.582.055,1.224-.663,2.492a3.073,3.073,0,0,0,1.93.053,5.454,5.454,0,0,0,.493-2.715,2.8,2.8,0,0,1-1.76.17" transform="translate(-384.427 -286.174)" fill="none"/></clipPath><linearGradient id="fo" x1="-95.799" y1="29.893" x2="-95.55" y2="29.893" xlink:href="#du"/><clipPath id="fp"><path d="M421.338,318.476a3.957,3.957,0,0,1,2.406.632,5.615,5.615,0,0,0,1.131-1.98,7.4,7.4,0,0,1-2.709-.873,3.688,3.688,0,0,0-.828,2.222" transform="translate(-421.338 -316.254)" fill="none"/></clipPath><linearGradient id="fq" x1="-90.587" y1="15.132" x2="-90.372" y2="15.132" xlink:href="#du"/><clipPath id="fr"><path d="M53.781,146.713a3.574,3.574,0,0,0,2.3.015,3.842,3.842,0,0,1-.226-2.4,5.426,5.426,0,0,0-2.182-.37,7.2,7.2,0,0,1,.108,2.759" transform="translate(-53.673 -143.954)" fill="none"/></clipPath><linearGradient id="fs" x1="-17.646" y1="66.281" x2="-17.317" y2="66.281" xlink:href="#du"/><clipPath id="ft"><path d="M279.18,57.994a10.683,10.683,0,0,1,3.617,1.339,1.753,1.753,0,0,1,.581-.981,9.535,9.535,0,0,0-3.747-1.474,1.7,1.7,0,0,0-.451,1.116" transform="translate(-279.18 -56.878)" fill="none"/></clipPath><linearGradient id="fu" x1="-55.716" y1="57.273" x2="-55.516" y2="57.273" xlink:href="#du"/><clipPath id="fv"><path d="M436.755,172.435a9.919,9.919,0,0,0,2.276,3.519,1.772,1.772,0,0,0,1.057-.67,11.138,11.138,0,0,1-2.248-3.327,1.826,1.826,0,0,1-1.085.479" transform="translate(-436.755 -171.956)" fill="none"/></clipPath><linearGradient id="fw" x1="-75.048" y1="36.073" x2="-74.876" y2="36.073" xlink:href="#du"/><clipPath id="fx"><path d="M18.225,139.87A10.61,10.61,0,0,1,18.931,143a1.929,1.929,0,0,0,1.3-.993,11.956,11.956,0,0,1-1.2-2.541,1.76,1.76,0,0,1-.805.409" transform="translate(-18.225 -139.461)" fill="none"/></clipPath><linearGradient id="fy" x1="-4.18" y1="51.561" x2="-3.939" y2="51.561" xlink:href="#du"/><clipPath id="fz"><path d="M211.782,68.692a14.931,14.931,0,0,1,2.845,2.061,2.212,2.212,0,0,1,.636-.935,13.262,13.262,0,0,1-2.658-3,2.414,2.414,0,0,0-.823,1.872" transform="translate(-211.782 -66.82)" fill="none"/></clipPath><linearGradient id="ga" x1="-33.315" y1="53.096" x2="-33.157" y2="53.096" xlink:href="#du"/><clipPath id="gb"><path d="M349.457,66.087a1.505,1.505,0,0,0,.173,1.335,5.326,5.326,0,0,1,2.408-.349,2,2,0,0,1,0-1.394q-.179-.01-.349-.01a6.6,6.6,0,0,0-2.227.418" transform="translate(-349.365 -65.669)" fill="none"/></clipPath><linearGradient id="gc" x1="-95.68" y1="124.194" x2="-95.406" y2="124.194" gradientUnits="objectBoundingBox"><stop offset="0" stop-color="#ebebeb"/><stop offset="0" stop-color="#ff3eb9"/><stop offset="0.044" stop-color="#ff43bb"/><stop offset="0.701" stop-color="#ff97e2"/><stop offset="1" stop-color="#ffb9f2"/></linearGradient><clipPath id="gd"><path d="M107.035,189.041c.073.3.273.48.655.678a3.742,3.742,0,0,1,1.207-1.2,1.4,1.4,0,0,1-.585-.782,4.478,4.478,0,0,0-1.277,1.306" transform="translate(-107.035 -187.735)" fill="none"/></clipPath><linearGradient id="ge" x1="-32.202" y1="62.463" x2="-31.9" y2="62.463" xlink:href="#gc"/><clipPath id="gf"><path d="M199.713,115.115a1.427,1.427,0,0,0,1.2.78,2.161,2.161,0,0,0,.771-1.184,3.242,3.242,0,0,1-.872-1.574,5.637,5.637,0,0,1-1.1,1.978" transform="translate(-199.713 -113.137)" fill="none"/></clipPath><linearGradient id="gg" x1="-48.323" y1="73.535" x2="-48.08" y2="73.535" xlink:href="#gc"/><clipPath id="gh"><path d="M324.242,123.159a1.112,1.112,0,0,0,1.058-.336,1.679,1.679,0,0,0-.333-1.048,2.534,2.534,0,0,1-1.377-.251,4.384,4.384,0,0,1,.651,1.635" transform="translate(-323.591 -121.524)" fill="none"/></clipPath><linearGradient id="gi" x1="-123.137" y1="103.864" x2="-122.756" y2="103.864" xlink:href="#gc"/><clipPath id="gj"><path d="M140.509,9.634a5.941,5.941,0,0,0,2.061.18,2.367,2.367,0,0,0-.442-1.178,1.981,1.981,0,0,1-1.265-.089,1.326,1.326,0,0,1-.354,1.086" transform="translate(-140.509 -8.548)" fill="none"/></clipPath><linearGradient id="gk" x1="-86.24" y1="152.744" x2="-85.628" y2="152.744" xlink:href="#gc"/><clipPath id="gl"><path d="M406.3,60.724a3.817,3.817,0,0,0,2.016-.028,3.173,3.173,0,0,1,.821-1.859,2.131,2.131,0,0,1-1.445-1.123,9.5,9.5,0,0,0-1.391,3.01" transform="translate(-406.299 -57.714)" fill="none"/></clipPath><linearGradient id="gm" x1="-83.705" y1="73.281" x2="-83.499" y2="73.281" xlink:href="#gc"/><clipPath id="gn"><path d="M62.784,326.581a4.915,4.915,0,0,1-.4,2.048,15.272,15.272,0,0,1,4.148.027,2.773,2.773,0,0,0,.592-1.923,13.63,13.63,0,0,0-2.638-.206c-.535,0-1.108.018-1.705.054" transform="translate(-62.388 -326.527)" fill="none"/></clipPath><linearGradient id="go" x1="-22.226" y1="11.677" x2="-21.878" y2="11.677" xlink:href="#gc"/><clipPath id="gp"><path d="M405.437,215.847a3.173,3.173,0,0,1,1.279.417,9.9,9.9,0,0,1,.349-2.654,1.788,1.788,0,0,0-1.184-.533,11.664,11.664,0,0,0-.444,2.77" transform="translate(-405.437 -213.077)" fill="none"/></clipPath><linearGradient id="gq" x1="-97.22" y1="68.759" x2="-96.98" y2="68.759" xlink:href="#gc"/><clipPath id="gr"><path d="M48.16,375.939a2.316,2.316,0,0,0,1.29.674,3.4,3.4,0,0,1,.932-.487c-.306-.163-.391-.387-.419-.878a5.967,5.967,0,0,1-1.8.692" transform="translate(-48.16 -375.247)" fill="none"/></clipPath><linearGradient id="gs" x1="-15.12" y1="6.866" x2="-14.805" y2="6.866" xlink:href="#gc"/><clipPath id="gt"><path d="M448.887,82.445a6.537,6.537,0,0,1,1.035,1.718c.274-.6.691-.787,1.622-.9a11.392,11.392,0,0,1-1.526-3.354,4.4,4.4,0,0,0-1.132,2.534" transform="translate(-448.887 -79.911)" fill="none"/></clipPath><linearGradient id="gu" x1="-81.1" y1="51.546" x2="-80.919" y2="51.546" xlink:href="#gc"/><clipPath id="gv"><path d="M33.611,253.07a9.086,9.086,0,0,0,1.244,2.469c.374-.663.672-.941,1.27-.956a6.872,6.872,0,0,1-1.366-2.321,2.207,2.207,0,0,0-1.149.808" transform="translate(-33.611 -252.262)" fill="none"/></clipPath><linearGradient id="gw" x1="-7.007" y1="28.432" x2="-6.793" y2="28.432" xlink:href="#gc"/><clipPath id="gx"><path d="M253.118,156.978a7.348,7.348,0,0,1,2.371,1.646,2.363,2.363,0,0,0,.756-1.3,9.762,9.762,0,0,0-2.32-1.848c-.067.815-.232,1.219-.807,1.5" transform="translate(-253.118 -155.475)" fill="none"/></clipPath><linearGradient id="gy" x1="-47.596" y1="45.135" x2="-47.407" y2="45.135" xlink:href="#gc"/><clipPath id="gz"><path d="M354.721,93.66a.915.915,0,0,1,.8.474,2.989,2.989,0,0,0,.336-1.311.831.831,0,0,0-.745-.365,2.165,2.165,0,0,1-.393,1.2" transform="translate(-354.721 -92.459)" fill="none"/></clipPath><linearGradient id="ha" x1="-148.386" y1="151.009" x2="-147.967" y2="151.009" xlink:href="#gc"/><clipPath id="hb"><path d="M327.908,329.4a3.87,3.87,0,0,0,1.716.373,1.079,1.079,0,0,0,.435-.982,2.841,2.841,0,0,1-1.576-.451,1.185,1.185,0,0,1-.575,1.061" transform="translate(-327.908 -328.337)" fill="none"/></clipPath><linearGradient id="hc" x1="-133.578" y1="21.833" x2="-133.17" y2="21.833" xlink:href="#gc"/><clipPath id="hd"><path d="M1.8,271.654a3.117,3.117,0,0,0,.928,1.392,1.518,1.518,0,0,0,.833-.579,2.854,2.854,0,0,1-.9-1.378,1.064,1.064,0,0,1-.858.565" transform="translate(-1.796 -271.089)" fill="none"/></clipPath><linearGradient id="he" x1="-0.417" y1="38.674" x2="-0.097" y2="38.674" xlink:href="#gc"/><clipPath id="hf"><path d="M224.125,0a2.425,2.425,0,0,0-.534,1.186,1.181,1.181,0,0,0,.724.31A2.226,2.226,0,0,1,224.85.332.825.825,0,0,1,224.125,0Z" transform="translate(-223.591 0.001)" fill="none"/></clipPath><linearGradient id="hg" x1="-98.516" y1="186.706" x2="-98.075" y2="186.706" xlink:href="#gc"/><clipPath id="hh"><path d="M422.416,391.383a7.273,7.273,0,0,0,1.581,1.8,3.32,3.32,0,0,0,1-1.019,4.234,4.234,0,0,1-1.229-1.4,2.081,2.081,0,0,1-1.352.62" transform="translate(-422.416 -390.763)" fill="none"/></clipPath><linearGradient id="hi" x1="-98.304" y1="0.853" x2="-98.07" y2="0.853" xlink:href="#gc"/><clipPath id="hj"><path d="M11.324,175.269a5.954,5.954,0,0,0,1.956.189,2.708,2.708,0,0,0,.025-1.171,3.463,3.463,0,0,1-1.521-.146,1.7,1.7,0,0,1-.46,1.128" transform="translate(-11.324 -174.141)" fill="none"/></clipPath><linearGradient id="hk" x1="-5.691" y1="81.09" x2="-5.199" y2="81.09" xlink:href="#gc"/><clipPath id="hl"><path d="M43.728,23.169A5.82,5.82,0,0,1,46.6,24a1.262,1.262,0,0,1,.426-.966,10.207,10.207,0,0,0-2.75-1.046,2.422,2.422,0,0,0-.544,1.181" transform="translate(-43.728 -21.988)" fill="none"/></clipPath><linearGradient id="hm" x1="-12.221" y1="81.457" x2="-11.943" y2="81.457" xlink:href="#gc"/><clipPath id="hn"><path d="M381.606,39.431a1.619,1.619,0,0,0,.507.706,3.89,3.89,0,0,1,1.428-1.4.844.844,0,0,1-.422-.565,6.8,6.8,0,0,0-1.513,1.255" transform="translate(-381.606 -38.176)" fill="none"/></clipPath><linearGradient id="ho" x1="-113.981" y1="106.404" x2="-113.682" y2="106.404" xlink:href="#gc"/><clipPath id="hp"><path d="M365.152,309.988a4.741,4.741,0,0,0,2.566.294,1.981,1.981,0,0,0,.075-1.034,3.949,3.949,0,0,1-2.316-.061,1.079,1.079,0,0,1-.326.8" transform="translate(-365.152 -309.186)" fill="none"/></clipPath><linearGradient id="hq" x1="-226.928" y1="25.494" x2="-226.308" y2="25.494" xlink:href="#gc"/><clipPath id="hr"><path d="M264.784,33.179a2.461,2.461,0,0,0,.719,1.071,4.925,4.925,0,0,1,2.318-1.715,1.346,1.346,0,0,1-.3-1.034,5.894,5.894,0,0,0-2.74,1.678" transform="translate(-264.784 -31.501)" fill="none"/></clipPath><linearGradient id="hs" x1="-53.415" y1="74.649" x2="-53.213" y2="74.649" xlink:href="#gc"/><clipPath id="ht"><path d="M451.9,242.669a1.926,1.926,0,0,0,1.071.574,3.451,3.451,0,0,0,1.039-1.391,1.76,1.76,0,0,1-1.038-.4c-.081.369-.312.7-1.073,1.216" transform="translate(-451.903 -241.453)" fill="none"/></clipPath><linearGradient id="hu" x1="-137.766" y1="45.5" x2="-137.461" y2="45.5" xlink:href="#gc"/><clipPath id="hv"><path d="M22.231,196.286a2.672,2.672,0,0,1,.434,1.631,3.127,3.127,0,0,1,2.45.234,2.933,2.933,0,0,0-.25-1.825,6.71,6.71,0,0,0-1.449-.191,5.118,5.118,0,0,0-1.185.15" transform="translate(-22.231 -196.136)" fill="none"/></clipPath><linearGradient id="hw" x1="-9.161" y1="54" x2="-8.76" y2="54" xlink:href="#gc"/><clipPath id="hx"><path d="M307.008,108.978a2.6,2.6,0,0,1-.095,1.628,3.668,3.668,0,0,0,1.418.471,4.859,4.859,0,0,1,.211-1.853,2.317,2.317,0,0,0-1.091-.273,4.055,4.055,0,0,0-.443.027" transform="translate(-306.913 -108.951)" fill="none"/></clipPath><linearGradient id="hy" x1="-109.156" y1="124.774" x2="-108.8" y2="124.774" xlink:href="#gc"/><clipPath id="hz"><path d="M335.42,6.595a1.709,1.709,0,0,0,.3,1.051,1.822,1.822,0,0,1,1.065-.428,2.579,2.579,0,0,0-.125-1.045,3.457,3.457,0,0,1-1.244.423" transform="translate(-335.42 -6.172)" fill="none"/></clipPath><linearGradient id="ia" x1="-153.559" y1="173.384" x2="-153.101" y2="173.384" xlink:href="#gc"/><clipPath id="ib"><path d="M161.133,109.23c.177.481.512.7,1.073,1.053a13.393,13.393,0,0,1,3.274-3.542,2.187,2.187,0,0,1-.857-1.138,11.886,11.886,0,0,0-3.491,3.627" transform="translate(-161.133 -105.603)" fill="none"/></clipPath><linearGradient id="ic" x1="-20.75" y1="37.274" x2="-20.62" y2="37.274" xlink:href="#gc"/><clipPath id="id"><path d="M377.533,33.813a7.993,7.993,0,0,1,2.676,1.073,1.313,1.313,0,0,1,.453-.722,7.118,7.118,0,0,0-2.77-1.176,1.277,1.277,0,0,0-.358.825" transform="translate(-377.533 -32.988)" fill="none"/></clipPath><linearGradient id="ie" x1="-97.567" y1="81.357" x2="-97.309" y2="81.357" xlink:href="#gc"/><clipPath id="if"><path d="M165.243,54.215a17.933,17.933,0,0,1-1.712,3.872,2.662,2.662,0,0,1,1.261.512,16.042,16.042,0,0,1,2.864-3.887,3.057,3.057,0,0,0-1.683-.574,4,4,0,0,0-.73.076" transform="translate(-163.531 -54.139)" fill="none"/></clipPath><linearGradient id="ig" x1="-23.624" y1="51.14" x2="-23.479" y2="51.14" xlink:href="#gc"/><clipPath id="ih"><path d="M96.524,82.468a9.2,9.2,0,0,1,1.632,2.219,1.658,1.658,0,0,0,.68-1.23,10.242,10.242,0,0,1-1.819-1.589,1.517,1.517,0,0,1-.493.6" transform="translate(-96.524 -81.868)" fill="none"/></clipPath><linearGradient id="ii" x1="-21.589" y1="71.998" x2="-21.363" y2="71.998" xlink:href="#gc"/><clipPath id="ij"><path d="M428.9,125.527c.1.678.511,1.105,1.312,1.61a8.234,8.234,0,0,1,2.873-2.414,3.093,3.093,0,0,1-1.139-1.826,9.861,9.861,0,0,0-3.046,2.631" transform="translate(-428.897 -122.896)" fill="none"/></clipPath><linearGradient id="ik" x1="-59.219" y1="37.593" x2="-59.08" y2="37.593" gradientUnits="objectBoundingBox"><stop offset="0" stop-color="#00ee98"/><stop offset="0.282" stop-color="#00d584"/><stop offset="0.877" stop-color="#009753"/><stop offset="1" stop-color="#008a49"/></linearGradient><clipPath id="il"><path d="M62.654,148.045a1.294,1.294,0,0,0,.617,1.136,1.959,1.959,0,0,0,1.124-.61,2.937,2.937,0,0,1-.015-1.628,5.084,5.084,0,0,1-1.726,1.1" transform="translate(-62.654 -146.943)" fill="none"/></clipPath><linearGradient id="im" x1="-19.565" y1="72.466" x2="-19.25" y2="72.466" xlink:href="#ik"/><clipPath id="in"><path d="M208.554,50.777a1.248,1.248,0,0,0,.13,1.24,1.889,1.889,0,0,0,1.227-.129,2.826,2.826,0,0,1,.586-1.455,4.91,4.91,0,0,1-1.943.344" transform="translate(-208.445 -50.433)" fill="none"/></clipPath><linearGradient id="io" x1="-74.564" y1="149.223" x2="-74.206" y2="149.223" xlink:href="#ik"/><clipPath id="ip"><path d="M449.435,215.78a2,2,0,0,1-.34,1.233,1.344,1.344,0,0,1,1,.567,6,6,0,0,0,.587-2c-.082,0-.16-.007-.234-.007a2.224,2.224,0,0,0-1.017.21" transform="translate(-449.095 -215.57)" fill="none"/></clipPath><linearGradient id="iq" x1="-160.516" y1="74.156" x2="-160.159" y2="74.156" xlink:href="#ik"/><clipPath id="ir"><path d="M330.173,166.4a11.535,11.535,0,0,0,3.847,1.172,4.625,4.625,0,0,0-.368-2.418,3.844,3.844,0,0,1-2.368-.677,2.585,2.585,0,0,1-1.111,1.923" transform="translate(-330.173 -164.473)" fill="none"/></clipPath><linearGradient id="is" x1="-70.052" y1="42.038" x2="-69.84" y2="42.038" xlink:href="#ik"/><clipPath id="it"><path d="M174.681,211.737a5.316,5.316,0,0,1,1.095,1.975,16.6,16.6,0,0,1,3.463-2.86,3,3,0,0,0-.844-2.01,19.652,19.652,0,0,0-3.713,2.894" transform="translate(-174.681 -208.843)" fill="none"/></clipPath><linearGradient id="iu" x1="-21.703" y1="23.055" x2="-21.578" y2="23.055" xlink:href="#ik"/><clipPath id="iv"><path d="M120.288,101.716a10.731,10.731,0,0,0,2.509.548,2.891,2.891,0,0,1,.447-1.147,9.074,9.074,0,0,1-2.406-.456,1.626,1.626,0,0,0-.549,1.054" transform="translate(-120.288 -100.662)" fill="none"/></clipPath><linearGradient id="iw" x1="-44.429" y1="74.561" x2="-44.061" y2="74.561" xlink:href="#ik"/><clipPath id="ix"><path d="M137.3,174.394a5.381,5.381,0,0,1-1.339.969c.512.183.695.512.849,1.271a9.374,9.374,0,0,1,2.651-1.484,3.727,3.727,0,0,0-2.056-.757l-.105,0" transform="translate(-135.958 -174.392)" fill="none"/></clipPath><linearGradient id="iy" x1="-26.921" y1="46.314" x2="-26.723" y2="46.314" xlink:href="#ik"/><clipPath id="iz"><path d="M279.391,193.215c.511.266.653.636.705,1.454a9.947,9.947,0,0,1,2.992-1.172,3.838,3.838,0,0,0-2.154-1.1,5.708,5.708,0,0,1-1.543.822" transform="translate(-279.391 -192.393)" fill="none"/></clipPath><linearGradient id="ja" x1="-52.875" y1="43.635" x2="-52.686" y2="43.635" xlink:href="#ik"/><clipPath id="jb"><path d="M71.636,76.924a1.89,1.89,0,0,0,.311,1.161,7.839,7.839,0,0,0,2.352-.275c-.424-.5-.56-.817-.4-1.3a5.886,5.886,0,0,1-2.265.416" transform="translate(-71.636 -76.508)" fill="none"/></clipPath><linearGradient id="jc" x1="-20.052" y1="123.424" x2="-19.771" y2="123.424" xlink:href="#ik"/><clipPath id="jd"><path d="M204.035,156.033c.358-.026.544.018.706.247a3.22,3.22,0,0,1,.552-1.137,1.032,1.032,0,0,0-.614-.24,4.329,4.329,0,0,0-.643,1.13" transform="translate(-204.035 -154.903)" fill="none"/></clipPath><linearGradient id="je" x1="-94.053" y1="114.053" x2="-93.592" y2="114.053" xlink:href="#ik"/><clipPath id="jf"><path d="M358.7,25.564a.835.835,0,0,0-.141.819,2.189,2.189,0,0,1,1.27.041.916.916,0,0,1,.231-.905,2.25,2.25,0,0,0-.512-.061,4.587,4.587,0,0,0-.847.106" transform="translate(-358.512 -25.458)" fill="none"/></clipPath><linearGradient id="jg" x1="-277.474" y1="185.268" x2="-276.701" y2="185.268" xlink:href="#ik"/><clipPath id="jh"><path d="M55.8,230.134a1.292,1.292,0,0,1,.448,1.233,4.17,4.17,0,0,0,1.541-1.126,1.173,1.173,0,0,0-.484-1.063,3.074,3.074,0,0,1-1.506.956" transform="translate(-55.798 -229.178)" fill="none"/></clipPath><linearGradient id="ji" x1="-15.938" y1="46.576" x2="-15.65" y2="46.576" xlink:href="#ik"/><clipPath id="jj"><path d="M160.674,132.74a2.251,2.251,0,0,0,.849,1.228,4.2,4.2,0,0,1,2.03-1.323,1.573,1.573,0,0,1-.827-1.265,4.6,4.6,0,0,0-2.052,1.361" transform="translate(-160.674 -131.379)" fill="none"/></clipPath><linearGradient id="jk" x1="-34.227" y1="57.27" x2="-34.013" y2="57.27" xlink:href="#ik"/><clipPath id="jl"><path d="M64.741,224.82a2.254,2.254,0,0,1,.536,1.188.847.847,0,0,1,.742-.336,2.485,2.485,0,0,0-.555-1.2,1.209,1.209,0,0,0-.723.35" transform="translate(-64.741 -224.47)" fill="none"/></clipPath><linearGradient id="jm" x1="-28.924" y1="71.572" x2="-28.475" y2="71.572" xlink:href="#ik"/><clipPath id="jn"><path d="M376.642,319.159a5.536,5.536,0,0,0,.747,2.256,6.976,6.976,0,0,1,3.01-.753,3.461,3.461,0,0,1,.113-2.472,12.047,12.047,0,0,0-3.87.969" transform="translate(-376.642 -318.19)" fill="none"/></clipPath><linearGradient id="jo" x1="-69.825" y1="15.915" x2="-69.64" y2="15.915" xlink:href="#ik"/><clipPath id="jp"><path d="M434.648,267.162a2.882,2.882,0,0,0,1.149.46,3.635,3.635,0,0,1,.71-1.451,1.8,1.8,0,0,1-.946-.875,6.287,6.287,0,0,0-.914,1.866" transform="translate(-434.648 -265.296)" fill="none"/></clipPath><linearGradient id="jq" x1="-121.648" y1="38.488" x2="-121.368" y2="38.488" xlink:href="#ik"/><clipPath id="jr"><path d="M440.978,297.212a13.731,13.731,0,0,0,.857,3.864,3.246,3.246,0,0,0,1.73-.261,7.834,7.834,0,0,1-1.186-3.839,1.7,1.7,0,0,1-1.4.236" transform="translate(-440.978 -296.976)" fill="none"/></clipPath><linearGradient id="js" x1="-101.599" y1="17.017" x2="-101.368" y2="17.017" xlink:href="#ik"/><clipPath id="jt"><path d="M56.312,245.893a10.672,10.672,0,0,0,1.646,2.586,2.516,2.516,0,0,0,1.19-.647,6.073,6.073,0,0,1-1.877-2.481,1.321,1.321,0,0,1-.959.542" transform="translate(-56.312 -245.351)" fill="none"/></clipPath><linearGradient id="ju" x1="-11.103" y1="29.269" x2="-10.903" y2="29.269" xlink:href="#ik"/><clipPath id="jv"><path d="M406.545,18.978a3.265,3.265,0,0,1,1.83.562.886.886,0,0,1,.436-.566,3.9,3.9,0,0,0-1.978-.8,1.629,1.629,0,0,0-.289.807" transform="translate(-406.545 -18.171)" fill="none"/></clipPath><linearGradient id="jw" x1="-166.154" y1="119.832" x2="-165.746" y2="119.832" xlink:href="#ik"/><clipPath id="jx"><path d="M366.47,269.719a3.114,3.114,0,0,0,1.583.618,1.3,1.3,0,0,0,.22-.646,2.6,2.6,0,0,1-1.463-.427.7.7,0,0,1-.34.455" transform="translate(-366.47 -269.264)" fill="none"/></clipPath><linearGradient id="jy" x1="-192.272" y1="50.315" x2="-191.748" y2="50.315" xlink:href="#ik"/><clipPath id="jz"><path d="M377.9,144.482a3.618,3.618,0,0,1,.278,2.258c.742-.21,1.571-.113,3.227.766a3.945,3.945,0,0,0,0-2.482,7.376,7.376,0,0,0-2.735-.58c-.241,0-.5.012-.773.038" transform="translate(-377.898 -144.444)" fill="none"/></clipPath><linearGradient id="ka" x1="-86.634" y1="49.029" x2="-86.404" y2="49.029" xlink:href="#ik"/><clipPath id="kb"><path d="M432.1,368.594a5.542,5.542,0,0,0,1.21,2.525,2.852,2.852,0,0,1,1.346-1.187c-.467-.39-.774-.973-.937-2.442a3.117,3.117,0,0,0-1.618,1.1" transform="translate(-432.097 -367.49)" fill="none"/></clipPath><linearGradient id="kc" x1="-91.354" y1="5.006" x2="-91.143" y2="5.006" xlink:href="#ik"/><clipPath id="kd"><path d="M71.827,175.318a1.809,1.809,0,0,0,.141,1.15,1.944,1.944,0,0,1,1.187-.269,2.726,2.726,0,0,0,.044-1.114,3.628,3.628,0,0,1-1.372.234" transform="translate(-71.79 -175.084)" fill="none"/></clipPath><linearGradient id="ke" x1="-34.675" y1="112.192" x2="-34.191" y2="112.192" xlink:href="#ik"/><clipPath id="kf"><path d="M308.136,85.328a7.624,7.624,0,0,1,2.592,1.346,3.777,3.777,0,0,0,1.219-2.106,4.077,4.077,0,0,1-2.329-1.052,5.742,5.742,0,0,0-1.483,1.812" transform="translate(-308.136 -83.516)" fill="none"/></clipPath><linearGradient id="kg" x1="-55.289" y1="52.8" x2="-55.109" y2="52.8" xlink:href="#ik"/><clipPath id="kh"><path d="M167.593,86.167a1.989,1.989,0,0,1,.571,1.167,10.862,10.862,0,0,0,3.752-2.646,1.941,1.941,0,0,0-.78-1.129,12.226,12.226,0,0,1-3.542,2.608" transform="translate(-167.593 -83.559)" fill="none"/></clipPath><linearGradient id="ki" x1="-24.441" y1="47.387" x2="-24.295" y2="47.387" xlink:href="#ik"/><clipPath id="kj"><path d="M415.732,366.932a12.49,12.49,0,0,0,2.143,4.824,2.235,2.235,0,0,0,1.447-.626,14.062,14.062,0,0,1-2.146-4.581,2.293,2.293,0,0,1-1.444.382" transform="translate(-415.732 -366.55)" fill="none"/></clipPath><linearGradient id="kk" x1="-68.022" y1="3.748" x2="-67.858" y2="3.748" xlink:href="#ik"/><clipPath id="kl"><path d="M226.3,110.448a15.1,15.1,0,0,1,2.606,3.75,2.749,2.749,0,0,0,1.182-2.008,17,17,0,0,1-2.943-2.714,2.51,2.51,0,0,1-.845.972" transform="translate(-226.303 -109.476)" fill="none"/></clipPath><linearGradient id="km" x1="-30.567" y1="39.447" x2="-30.431" y2="39.447" xlink:href="#ik"/><clipPath id="kn"><path d="M392.339,339.707a11.166,11.166,0,0,1-1.192,2.339,1.658,1.658,0,0,1,.764.361,9.9,9.9,0,0,1,1.905-2.31,1.832,1.832,0,0,0-1.127-.416,2.782,2.782,0,0,0-.351.026" transform="translate(-391.147 -339.681)" fill="none"/></clipPath><linearGradient id="ko" x1="-89.493" y1="12.594" x2="-89.263" y2="12.594" xlink:href="#ik"/></defs><g transform="translate(6204 19205)" opacity="0.5" clip-path="url(#c)"><g transform="translate(-6177.979 -19193.998)"><g transform="translate(363.561 137.705)"><g clip-path="url(#d)"><rect width="3.096" height="3.081" transform="translate(-1.04 0.773) rotate(-36.646)" fill="url(#e)"/></g></g><g transform="translate(105.739 47.957)"><g clip-path="url(#f)"><rect width="2.978" height="2.998" transform="translate(-0.998 1.151) rotate(-49.071)" fill="url(#g)"/></g></g><g transform="translate(383.637 30.254)"><g clip-path="url(#h)"><rect width="3.285" height="3.348" transform="matrix(0.662, -0.749, 0.749, 0.662, -0.986, 1.116)" fill="url(#i)"/></g></g><g transform="translate(117.756 272.42)"><g clip-path="url(#j)"><rect width="1.167" height="1.768" transform="translate(-0.042 1.1) rotate(-87.814)" fill="url(#k)"/></g></g><g transform="translate(31.676 193.626)"><g clip-path="url(#l)"><rect width="1.694" height="2.043" transform="translate(-0.479 0.142) rotate(-16.467)" fill="url(#m)"/></g></g><g transform="translate(206.332 27.272)"><g clip-path="url(#n)"><rect width="4.599" height="4.557" transform="translate(-1.62 2.206) rotate(-53.987)" fill="url(#o)"/></g></g><g transform="translate(213.974 120.757)"><g clip-path="url(#p)"><rect width="2.803" height="3.144" transform="matrix(0.471, -0.882, 0.882, 0.471, -0.741, 1.387)" fill="url(#q)"/></g></g><g transform="translate(321.335 89.153)"><g clip-path="url(#r)"><rect width="2.682" height="5.43" transform="translate(-0.072 0) rotate(-0.122)" fill="url(#s)"/></g></g><g transform="translate(375.555 127.542)"><g clip-path="url(#t)"><rect width="2.66" height="3.263" transform="translate(-0.256 2.315) rotate(-83.701)" fill="url(#u)"/></g></g><g transform="translate(117.385 18.649)"><g clip-path="url(#v)"><rect width="4.622" height="3.198" transform="matrix(0.977, -0.214, 0.214, 0.977, -0.491, 0.107)" fill="url(#w)"/></g></g><g transform="translate(471.652 171.196)"><g clip-path="url(#x)"><rect width="2.89" height="3.428" transform="matrix(0.228, -0.974, 0.974, 0.228, -0.563, 2.151)" fill="url(#y)"/></g></g><g transform="translate(246.695 77.778)"><g clip-path="url(#z)"><rect width="4.541" height="4.17" transform="translate(-1.155 0.633) rotate(-28.707)" fill="url(#aa)"/></g></g><g transform="translate(33.152 166.305)"><g clip-path="url(#ab)"><rect width="2.464" height="2.503" transform="translate(-0.78 0.415) rotate(-27.986)" fill="url(#ac)"/></g></g><g transform="translate(125.285 8.491)"><g clip-path="url(#ad)"><rect width="2.502" height="3.196" transform="matrix(0.996, -0.09, 0.09, 0.996, -0.322, 0.024)" fill="url(#ae)"/></g></g><g transform="translate(17.177 44.569)"><g clip-path="url(#af)"><rect width="3.49" height="3.421" transform="translate(-1.175 1.882) rotate(-58.028)" fill="url(#ag)"/></g></g><g transform="translate(220.021 55.689)"><g clip-path="url(#ah)"><rect width="1.218" height="1.766" transform="translate(-0.076 1.147) rotate(-87.668)" fill="url(#ai)"/></g></g><g transform="translate(387.65 96.658)"><g clip-path="url(#aj)"><rect width="4.547" height="4.01" transform="matrix(0.981, -0.193, 0.193, 0.981, -0.627, 0.124)" fill="url(#ak)"/></g></g><g transform="translate(475.201 67.632)"><g clip-path="url(#al)"><rect width="4.198" height="2.865" transform="matrix(1, -0.022, 0.022, 1, -0.061, 0.001)" fill="url(#am)"/></g></g><g transform="translate(25.854 94.888)"><g clip-path="url(#an)"><rect width="3.715" height="3.764" transform="matrix(0.638, -0.77, 0.77, 0.638, -1.214, 1.464)" fill="url(#ao)"/></g></g><g transform="translate(273.219 19.764)"><g clip-path="url(#ap)"><rect width="3.531" height="2.851" transform="matrix(0.342, -0.94, 0.94, 0.342, -0.983, 2.701)" fill="url(#aq)"/></g></g><g transform="translate(534.771 153.518)"><g clip-path="url(#ar)"><rect width="1.35" height="1.736" transform="matrix(0.963, -0.271, 0.271, 0.963, -0.432, 0.113)" fill="url(#as)"/></g></g><g transform="translate(59.369 13.806)"><g clip-path="url(#at)"><rect width="2.041" height="1.701" transform="matrix(0.943, -0.334, 0.334, 0.943, -0.373, 0.132)" fill="url(#au)"/></g></g><g transform="translate(67.666 114.677)"><g clip-path="url(#av)"><rect width="6.095" height="5.977" transform="matrix(0.626, -0.78, 0.78, 0.626, -2.285, 2.844)" fill="url(#aw)"/></g></g><g transform="translate(263.413 130.151)"><g clip-path="url(#ax)"><rect width="3.012" height="2.951" transform="translate(-1.126 1.415) rotate(-51.497)" fill="url(#ay)"/></g></g><g transform="translate(374.658 194.069)"><g clip-path="url(#az)"><rect width="3.36" height="3.193" transform="translate(-0.521 0.077) rotate(-9.663)" fill="url(#ba)"/></g></g><g transform="translate(145.894 28.995)"><g clip-path="url(#bb)"><rect width="3.485" height="3.574" transform="matrix(0.844, -0.536, 0.536, 0.844, -1.223, 0.778)" fill="url(#bc)"/></g></g><g transform="translate(48.065 27.678)"><g clip-path="url(#bd)"><rect width="2.987" height="2.968" transform="translate(-1.004 0.828) rotate(-39.504)" fill="url(#be)"/></g></g><g transform="translate(15.183 256.137)"><g clip-path="url(#bf)"><rect width="3.621" height="3.615" transform="translate(-1.178 1.154) rotate(-44.409)" fill="url(#bg)"/></g></g><g transform="translate(15.336 201.341)"><g clip-path="url(#bh)"><rect width="4.577" height="4.909" transform="translate(-1.079 3.07) rotate(-70.641)" fill="url(#bi)"/></g></g><g transform="translate(280.999 2.439)"><g clip-path="url(#bj)"><rect width="3.245" height="3.196" transform="matrix(0.495, -0.869, 0.869, 0.495, -1.043, 1.833)" fill="url(#bk)"/></g></g><g transform="translate(340.404 132.964)"><g clip-path="url(#bl)"><rect width="3.358" height="4.395" transform="matrix(0.226, -0.974, 0.974, 0.226, -0.596, 2.408)" fill="url(#bm)"/></g></g><g transform="translate(145.652 123.391)"><g clip-path="url(#bn)"><rect width="3.981" height="3.082" transform="translate(-0.596 0.106) rotate(-12.174)" fill="url(#bo)"/></g></g><g transform="translate(352.488 106.528)"><g clip-path="url(#bp)"><rect width="1.678" height="2.221" transform="translate(-0.299 1.282) rotate(-79.299)" fill="url(#bq)"/></g></g><g transform="translate(360.302 49.283)"><g clip-path="url(#br)"><rect width="2.804" height="3" transform="translate(-0.954 0.479) rotate(-26.632)" fill="url(#bs)"/></g></g><g transform="translate(287.791 61.565)"><g clip-path="url(#bt)"><rect width="4.468" height="3.818" transform="translate(-0.832 0.28) rotate(-18.576)" fill="url(#bu)"/></g></g><g transform="translate(0 216.326)"><g clip-path="url(#bv)"><rect width="1.141" height="1.84" transform="matrix(1, -0.021, 0.021, 1, -0.039, 0.001)" fill="url(#bw)"/></g></g><g transform="translate(353.082 26.564)"><g clip-path="url(#bx)"><rect width="3.867" height="3.902" transform="matrix(0.763, -0.646, 0.646, 0.763, -1.431, 1.212)" fill="url(#by)"/></g></g><g transform="translate(67.756 217.091)"><g clip-path="url(#bz)"><rect width="5.395" height="5.368" transform="matrix(0.857, -0.516, 0.516, 0.857, -1.715, 1.033)" fill="url(#ca)"/></g></g><g transform="translate(9.615 301.003)"><g clip-path="url(#cb)"><rect width="1.449" height="2.255" transform="translate(-0.1 0.005) rotate(-2.605)" fill="url(#cc)"/></g></g><g transform="translate(421.062 120.954)"><g clip-path="url(#cd)"><rect width="5.186" height="5.795" transform="translate(-2.198 1.355) rotate(-31.639)" fill="url(#ce)"/></g></g><g transform="translate(395.582 72.538)"><g clip-path="url(#cf)"><rect width="2.644" height="2.67" transform="translate(-0.826 1.433) rotate(-60.03)" fill="url(#cg)"/></g></g><g transform="translate(464.643 102.051)"><g clip-path="url(#ch)"><rect width="2.216" height="2.169" transform="translate(-0.685 1.328) rotate(-62.697)" fill="url(#ci)"/></g></g><g transform="translate(485.825 260.158)"><g clip-path="url(#cj)"><rect width="1.79" height="1.958" transform="translate(-0.362 0.082) rotate(-12.766)" fill="url(#ck)"/></g></g><g transform="translate(11.705 323.756)"><g clip-path="url(#cl)"><rect width="2.414" height="2.577" transform="matrix(0.533, -0.846, 0.846, 0.533, -0.699, 1.108)" fill="url(#cm)"/></g></g><g transform="translate(153.232 68.757)"><g clip-path="url(#cn)"><rect width="2.546" height="3.437" transform="translate(-0.457 0.052) rotate(-7.305)" fill="url(#co)"/></g></g><g transform="translate(363.409 88.691)"><g clip-path="url(#cp)"><rect width="1.422" height="1.932" transform="translate(-0.247 0.026) rotate(-6.953)" fill="url(#cq)"/></g></g><g transform="translate(499.823 59.557)"><g clip-path="url(#cr)"><rect width="4.922" height="4.561" transform="translate(-1.596 3.122) rotate(-62.92)" fill="url(#cs)"/></g></g><g transform="translate(342.496 59.673)"><g clip-path="url(#ct)"><rect width="4.457" height="4.446" transform="matrix(0.724, -0.689, 0.689, 0.724, -1.495, 1.423)" fill="url(#cu)"/></g></g><g transform="translate(486.549 219.628)"><g clip-path="url(#cv)"><rect width="2.271" height="2.189" transform="matrix(0.574, -0.819, 0.819, 0.574, -0.832, 1.185)" fill="url(#cw)"/></g></g><g transform="translate(509.521 40.392)"><g clip-path="url(#cx)"><rect width="2.906" height="3.017" transform="translate(-1.03 0.625) rotate(-31.24)" fill="url(#cy)"/></g></g><g transform="translate(361.131 0.349)"><g clip-path="url(#cz)"><rect width="1.038" height="1.88" transform="translate(-0.135 0.01) rotate(-4.278)" fill="url(#da)"/></g></g><g transform="translate(236.815 25.162)"><g clip-path="url(#db)"><rect width="3.657" height="3.252" transform="translate(-0.82 0.361) rotate(-23.726)" fill="url(#dc)"/></g></g><g transform="translate(21.599 341.221)"><g clip-path="url(#dd)"><rect width="2.178" height="3.022" transform="translate(-0.479 0.077) rotate(-9.59)" fill="url(#de)"/></g></g><g transform="translate(69.08 33.747)"><g clip-path="url(#df)"><rect width="2.845" height="2.845" transform="matrix(0.706, -0.708, 0.708, 0.706, -1.117, 1.119)" fill="url(#dg)"/></g></g><g transform="translate(498.002 167.01)"><g clip-path="url(#dh)"><rect width="3.956" height="4.04" transform="matrix(0.817, -0.576, 0.576, 0.817, -1.433, 1.01)" fill="url(#di)"/></g></g><g transform="translate(64.607 171.598)"><g clip-path="url(#dj)"><rect width="4.213" height="4.172" transform="translate(-1.371 1.183) rotate(-40.798)" fill="url(#dk)"/></g></g><g transform="translate(103.354 195.844)"><g clip-path="url(#dl)"><rect width="5.498" height="4.942" transform="matrix(0.521, -0.853, 0.853, 0.521, -2.062, 3.376)" fill="url(#dm)"/></g></g><g transform="translate(106.217 251.823)"><g clip-path="url(#dn)"><rect width="4.222" height="4.213" transform="translate(-1.376 1.337) rotate(-44.17)" fill="url(#do)"/></g></g><g transform="translate(279.667 202.952)"><g clip-path="url(#dp)"><rect width="2.457" height="2.695" transform="matrix(0.304, -0.953, 0.953, 0.304, -0.54, 1.693)" fill="url(#dq)"/></g></g><g transform="translate(373.015 168.727)"><g clip-path="url(#dr)"><rect width="4.304" height="2.706" transform="translate(-0.232 4.16) rotate(-86.815)" fill="url(#ds)"/></g></g><g transform="translate(230.636 4.309)"><g clip-path="url(#dt)"><rect width="3.694" height="5.028" transform="translate(-0.55 2.745) rotate(-78.673)" fill="url(#du)"/></g></g><g transform="translate(528.178 114.712)"><g clip-path="url(#dv)"><rect width="1.974" height="2.957" transform="translate(-0.344 0.028) rotate(-5.743)" fill="url(#dw)"/></g></g><g transform="translate(323.755 190.769)"><g clip-path="url(#dx)"><rect width="3.153" height="2.949" transform="matrix(0.553, -0.833, 0.833, 0.553, -1.182, 1.782)" fill="url(#dy)"/></g></g><g transform="translate(525.756 146.322)"><g clip-path="url(#dz)"><rect width="4.389" height="3.541" transform="matrix(0.281, -0.96, 0.96, 0.281, -1.032, 3.518)" fill="url(#ea)"/></g></g><g transform="translate(384.798 47.277)"><g clip-path="url(#eb)"><rect width="3.146" height="3.333" transform="translate(-0.818 2.091) rotate(-69.94)" fill="url(#ec)"/></g></g><g transform="translate(24.078 276.885)"><g clip-path="url(#ed)"><rect width="2.466" height="2.379" transform="translate(-0.734 0.506) rotate(-34.542)" fill="url(#ee)"/></g></g><g transform="translate(7.375 184.784)"><g clip-path="url(#ef)"><rect width="3.5" height="3.375" transform="translate(-1.336 1.764) rotate(-52.875)" fill="url(#eg)"/></g></g><g transform="translate(42.017 321.161)"><g clip-path="url(#eh)"><rect width="4.611" height="3.903" transform="matrix(0.406, -0.914, 0.914, 0.406, -1.457, 3.275)" fill="url(#ei)"/></g></g><g transform="translate(69.693 187.217)"><g clip-path="url(#ej)"><rect width="2.733" height="2.907" transform="matrix(0.477, -0.879, 0.879, 0.477, -0.781, 1.44)" fill="url(#ek)"/></g></g><g transform="translate(193.379 9.964)"><g clip-path="url(#el)"><rect width="5.751" height="5.244" transform="matrix(0.833, -0.554, 0.554, 0.833, -1.41, 0.937)" fill="url(#em)"/></g></g><g transform="translate(105.928 141.185)"><g clip-path="url(#en)"><rect width="2.17" height="2.178" transform="matrix(0.68, -0.733, 0.733, 0.68, -0.729, 0.785)" fill="url(#eo)"/></g></g><g transform="translate(508.944 208.936)"><g clip-path="url(#ep)"><rect width="1.669" height="1.312" transform="matrix(0.959, -0.282, 0.282, 0.959, -0.254, 0.075)" fill="url(#eq)"/></g></g><g transform="translate(175.889 181.731)"><g clip-path="url(#er)"><rect width="3.829" height="2.647" transform="translate(-0.175 0.003) rotate(-1.963)" fill="url(#es)"/></g></g><g transform="translate(29.112 148.668)"><g clip-path="url(#et)"><rect width="3.61" height="3.52" transform="matrix(0.943, -0.333, 0.333, 0.943, -0.855, 0.302)" fill="url(#eu)"/></g></g><g transform="translate(507.05 308.093)"><g clip-path="url(#ev)"><rect width="2.454" height="2.812" transform="translate(-0.487 1.742) rotate(-74.373)" fill="url(#ew)"/></g></g><g transform="translate(326.207 4.3)"><g clip-path="url(#ex)"><rect width="3.771" height="3.885" transform="translate(-1.139 2.016) rotate(-60.534)" fill="url(#ey)"/></g></g><g transform="translate(390.766 253.93)"><g clip-path="url(#ez)"><rect width="3.128" height="3.106" transform="translate(-1.035 0.746) rotate(-35.767)" fill="url(#fa)"/></g></g><g transform="translate(522.951 171.293)"><g clip-path="url(#fb)"><rect width="6.164" height="6.119" transform="matrix(0.801, -0.598, 0.598, 0.801, -2.05, 1.531)" fill="url(#fc)"/></g></g><g transform="translate(238.529 164.122)"><g clip-path="url(#fd)"><rect width="4.709" height="4.351" transform="translate(-1.188 0.59) rotate(-26.402)" fill="url(#fe)"/></g></g><g transform="translate(409.441 166.548)"><g clip-path="url(#ff)"><rect width="5.015" height="5.011" transform="translate(-1.751 1.585) rotate(-42.141)" fill="url(#fg)"/></g></g><g transform="translate(399.595 134.201)"><g clip-path="url(#fh)"><rect width="2.092" height="2.118" transform="matrix(0.641, -0.767, 0.767, 0.641, -0.685, 0.819)" fill="url(#fi)"/></g></g><g transform="translate(110.623 101.427)"><g clip-path="url(#fj)"><rect width="2.372" height="1.524" transform="translate(-0.222 0.034) rotate(-9.914)" fill="url(#fk)"/></g></g><g transform="translate(194.245 153.215)"><g clip-path="url(#fl)"><rect width="3.609" height="4.286" transform="translate(-0.441 3.125) rotate(-83.264)" fill="url(#fm)"/></g></g><g transform="translate(468.838 254.359)"><g clip-path="url(#fn)"><rect width="3.296" height="2.958" transform="translate(-0.498 2.819) rotate(-79.989)" fill="url(#fo)"/></g></g><g transform="translate(499.189 286.018)"><g clip-path="url(#fp)"><rect width="3.823" height="4.256" transform="translate(-0.854 2.57) rotate(-71.617)" fill="url(#fq)"/></g></g><g transform="translate(44.135 127.953)"><g clip-path="url(#fr)"><rect width="2.499" height="3.099" transform="translate(-0.091 0.003) rotate(-1.725)" fill="url(#fs)"/></g></g><g transform="translate(322.129 46.77)"><g clip-path="url(#ft)"><rect width="4.121" height="4.857" transform="matrix(0.464, -0.886, 0.886, 0.464, -1.008, 1.927)" fill="url(#fu)"/></g></g><g transform="translate(511.866 152.88)"><g clip-path="url(#fv)"><rect width="4.776" height="5.07" transform="translate(-1.607 0.81) rotate(-26.75)" fill="url(#fw)"/></g></g><g transform="translate(14.986 123.977)"><g clip-path="url(#fx)"><rect width="3.416" height="4.061" transform="matrix(0.886, -0.464, 0.464, 0.886, -1.454, 0.763)" fill="url(#fy)"/></g></g><g transform="translate(244.23 54.945)"><g clip-path="url(#fz)"><rect width="5.201" height="5.074" transform="translate(-1.81 2.736) rotate(-56.511)" fill="url(#ga)"/></g></g><g transform="translate(402.646 53.999)"><g clip-path="url(#gb)"><rect width="3" height="2.174" transform="translate(-0.36 0.046) rotate(-9.272)" fill="url(#gc)"/></g></g><g transform="translate(123.284 166.83)"><g clip-path="url(#gd)"><rect width="2.72" height="2.717" transform="matrix(0.696, -0.718, 0.718, 0.696, -0.991, 1.022)" fill="url(#ge)"/></g></g><g transform="translate(230.049 100.557)"><g clip-path="url(#gf)"><rect width="3.384" height="3.14" transform="translate(-1.247 1.967) rotate(-57.625)" fill="url(#gg)"/></g></g><g transform="translate(372.672 107.984)"><g clip-path="url(#gh)"><rect width="2.159" height="2.156" transform="translate(-0.509 0.169) rotate(-18.326)" fill="url(#gi)"/></g></g><g transform="translate(161.863 7.029)"><g clip-path="url(#gj)"><rect width="1.344" height="2.076" transform="matrix(0.012, -1, 1, 0.012, -0.015, 1.32)" fill="url(#gk)"/></g></g><g transform="translate(486.823 47.458)"><g clip-path="url(#gl)"><rect width="3.984" height="3.775" transform="translate(-1.047 2.803) rotate(-69.521)" fill="url(#gm)"/></g></g><g transform="translate(51.301 294.466)"><g clip-path="url(#gn)"><rect width="2.362" height="4.847" transform="translate(-0.105 2.125) rotate(-87.167)" fill="url(#go)"/></g></g><g transform="translate(486.114 189.404)"><g clip-path="url(#gp)"><rect width="3.42" height="2.153" transform="translate(-0.541 3.093) rotate(-80.083)" fill="url(#gq)"/></g></g><g transform="translate(39.602 334.528)"><g clip-path="url(#gr)"><rect width="2.606" height="2.279" transform="translate(-0.583 0.328) rotate(-29.347)" fill="url(#gs)"/></g></g><g transform="translate(521.842 71.05)"><g clip-path="url(#gt)"><rect width="4.54" height="5.014" transform="matrix(0.84, -0.543, 0.543, 0.84, -1.938, 1.252)" fill="url(#gu)"/></g></g><g transform="translate(27.638 224.24)"><g clip-path="url(#gv)"><rect width="3.849" height="4.106" transform="translate(-1.453 0.88) rotate(-31.217)" fill="url(#gw)"/></g></g><g transform="translate(291.821 138.2)"><g clip-path="url(#gx)"><rect width="4.36" height="4.354" transform="matrix(0.56, -0.829, 0.829, 0.56, -1.461, 2.163)" fill="url(#gy)"/></g></g><g transform="translate(408.349 82.158)"><g clip-path="url(#gz)"><rect width="1.963" height="1.64" transform="matrix(0.34, -0.94, 0.94, 0.34, -0.536, 1.482)" fill="url(#ha)"/></g></g><g transform="translate(377.769 295.954)"><g clip-path="url(#hb)"><rect width="2.019" height="2.485" transform="translate(-0.415 1.301) rotate(-72.312)" fill="url(#hc)"/></g></g><g transform="translate(1.477 240.901)"><g clip-path="url(#hd)"><rect width="2.571" height="2.616" transform="translate(-0.926 0.661) rotate(-35.534)" fill="url(#he)"/></g></g><g transform="translate(257.417 -0.001)"><g clip-path="url(#hf)"><rect width="1.863" height="1.735" transform="matrix(0.382, -0.924, 0.924, 0.382, -0.528, 1.278)" fill="url(#hg)"/></g></g><g transform="translate(500.076 347.287)"><g clip-path="url(#hh)"><rect width="3.529" height="3.504" transform="translate(-1.181 0.943) rotate(-38.608)" fill="url(#hi)"/></g></g><g transform="translate(9.312 154.727)"><g clip-path="url(#hj)"><rect width="1.67" height="2.232" transform="translate(-0.195 1.365) rotate(-81.856)" fill="url(#hk)"/></g></g><g transform="translate(35.957 18.08)"><g clip-path="url(#hl)"><rect width="2.956" height="3.763" transform="matrix(0.318, -0.948, 0.948, 0.318, -0.607, 1.808)" fill="url(#hm)"/></g></g><g transform="translate(466.518 31.392)"><g clip-path="url(#hn)"><rect width="2.749" height="2.751" transform="matrix(0.744, -0.669, 0.669, 0.744, -0.975, 0.876)" fill="url(#ho)"/></g></g><g transform="translate(420.843 274.704)"><g clip-path="url(#hp)"><rect width="1.326" height="2.757" transform="translate(-0.059 1.192) rotate(-87.181)" fill="url(#hq)"/></g></g><g transform="translate(305.25 25.903)"><g clip-path="url(#hr)"><rect width="4.067" height="3.998" transform="translate(-1.295 0.914) rotate(-35.209)" fill="url(#hs)"/></g></g><g transform="translate(524.323 214.557)"><g clip-path="url(#ht)"><rect width="2.695" height="2.762" transform="translate(-0.856 1.155) rotate(-53.442)" fill="url(#hu)"/></g></g><g transform="translate(18.28 174.297)"><g clip-path="url(#hv)"><rect width="2.047" height="3.018" transform="translate(-0.021 2.015) rotate(-89.391)" fill="url(#hw)"/></g></g><g transform="translate(353.443 96.822)"><g clip-path="url(#hx)"><rect width="2.309" height="1.876" transform="translate(-0.257 2.095) rotate(-83.008)" fill="url(#hy)"/></g></g><g transform="translate(386.2 5.075)"><g clip-path="url(#hz)"><rect width="1.795" height="1.839" transform="translate(-0.44 0.144) rotate(-18.225)" fill="url(#ia)"/></g></g><g transform="translate(185.943 93.903)"><g clip-path="url(#ib)"><rect width="6.338" height="6.379" transform="translate(-2.303 1.929) rotate(-39.939)" fill="url(#ic)"/></g></g><g transform="translate(463.169 27.126)"><g clip-path="url(#id)"><rect width="3.182" height="3.657" transform="translate(-0.807 1.448) rotate(-60.85)" fill="url(#ie)"/></g></g><g transform="translate(188.678 44.518)"><g clip-path="url(#if)"><rect width="5.66" height="5.47" transform="matrix(0.365, -0.931, 0.931, 0.365, -1.517, 3.866)" fill="url(#ig)"/></g></g><g transform="translate(111.215 72.766)"><g clip-path="url(#ih)"><rect width="3.646" height="3.567" transform="translate(-1.376 1.717) rotate(-51.293)" fill="url(#ii)"/></g></g><g transform="translate(505.405 109.269)"><g clip-path="url(#ij)"><rect width="5.941" height="5.946" transform="translate(-2.1 1.829) rotate(-41.056)" fill="url(#ik)"/></g></g><g transform="translate(51.52 130.588)"><g clip-path="url(#il)"><rect width="2.611" height="2.803" transform="translate(-0.953 0.532) rotate(-29.173)" fill="url(#im)"/></g></g><g transform="translate(240.123 41.47)"><g clip-path="url(#in)"><rect width="2.297" height="1.892" transform="translate(-0.258 0.022) rotate(-6.683)" fill="url(#io)"/></g></g><g transform="translate(522.014 191.567)"><g clip-path="url(#ip)"><rect width="2.298" height="1.976" transform="translate(-0.411 1.923) rotate(-77.949)" fill="url(#iq)"/></g></g><g transform="translate(380.871 146.197)"><g clip-path="url(#ir)"><rect width="3.876" height="4.502" transform="translate(-0.66 2.947) rotate(-77.383)" fill="url(#is)"/></g></g><g transform="translate(201.609 185.714)"><g clip-path="url(#it)"><rect width="6.572" height="6.633" transform="translate(-2.343 1.771) rotate(-37.091)" fill="url(#iu)"/></g></g><g transform="translate(138.663 89.445)"><g clip-path="url(#iv)"><rect width="2.234" height="3.243" transform="matrix(0.228, -0.974, 0.974, 0.228, -0.356, 1.519)" fill="url(#iw)"/></g></g><g transform="translate(156.791 154.983)"><g clip-path="url(#ix)"><rect width="4.141" height="3.913" transform="matrix(0.792, -0.611, 0.611, 0.792, -1.084, 0.836)" fill="url(#iy)"/></g></g><g transform="translate(322.25 170.981)"><g clip-path="url(#iz)"><rect width="4.339" height="3.812" transform="translate(-0.981 0.562) rotate(-29.796)" fill="url(#ja)"/></g></g><g transform="translate(58.906 62.912)"><g clip-path="url(#jb)"><rect width="2.931" height="2.115" transform="matrix(0.981, -0.193, 0.193, 0.981, -0.313, 0.061)" fill="url(#jc)"/></g></g><g transform="translate(234.903 137.635)"><g clip-path="url(#jd)"><rect width="1.781" height="1.723" transform="translate(-0.53 1.129) rotate(-64.854)" fill="url(#je)"/></g></g><g transform="translate(412.838 20.934)"><g clip-path="url(#jf)"><rect width="1.063" height="1.636" transform="translate(-0.095 0.962) rotate(-86.407)" fill="url(#jg)"/></g></g><g transform="translate(45.882 203.668)"><g clip-path="url(#jh)"><rect width="2.853" height="2.912" transform="translate(-0.961 0.57) rotate(-30.692)" fill="url(#ji)"/></g></g><g transform="translate(185.207 116.766)"><g clip-path="url(#jj)"><rect width="3.846" height="3.777" transform="translate(-1.222 0.868) rotate(-35.38)" fill="url(#jk)"/></g></g><g transform="translate(53.236 199.454)"><g clip-path="url(#jl)"><rect width="1.831" height="1.948" transform="translate(-0.615 0.308) rotate(-26.565)" fill="url(#jm)"/></g></g><g transform="translate(462.436 287.61)"><g clip-path="url(#jn)"><rect width="4.431" height="3.927" transform="matrix(0.98, -0.198, 0.198, 0.98, -0.626, 0.126)" fill="url(#jo)"/></g></g><g transform="translate(510.134 235.774)"><g clip-path="url(#jp)"><rect width="2.934" height="2.749" transform="translate(-0.981 1.789) rotate(-61.263)" fill="url(#jq)"/></g></g><g transform="translate(515.339 264.039)"><g clip-path="url(#jr)"><rect width="3.564" height="4.69" transform="translate(-1.028 0.271) rotate(-14.773)" fill="url(#js)"/></g></g><g transform="translate(46.305 218.089)"><g clip-path="url(#jt)"><rect width="4.113" height="4.187" transform="translate(-1.465 1.016) rotate(-34.736)" fill="url(#ju)"/></g></g><g transform="translate(487.025 14.942)"><g clip-path="url(#jv)"><rect width="2.013" height="2.582" transform="matrix(0.315, -0.949, 0.949, 0.315, -0.409, 1.232)" fill="url(#jw)"/></g></g><g transform="translate(422.084 239.231)"><g clip-path="url(#jx)"><rect width="1.568" height="2.043" transform="translate(-0.309 0.975) rotate(-72.41)" fill="url(#jy)"/></g></g><g transform="translate(463.469 128.392)"><g clip-path="url(#jz)"><rect width="3.588" height="4.192" transform="matrix(0.148, -0.989, 0.989, 0.148, -0.448, 2.995)" fill="url(#ka)"/></g></g><g transform="translate(508.036 328.149)"><g clip-path="url(#kb)"><rect width="3.882" height="4.38" transform="translate(-1.424 0.69) rotate(-25.847)" fill="url(#kc)"/></g></g><g transform="translate(59.032 155.567)"><g clip-path="url(#kd)"><rect width="1.699" height="1.603" transform="translate(-0.251 0.035) rotate(-9.123)" fill="url(#ke)"/></g></g><g transform="translate(355.435 74.237)"><g clip-path="url(#kf)"><rect width="4.576" height="4.847" transform="matrix(0.469, -0.883, 0.883, 0.469, -1.308, 2.464)" fill="url(#kg)"/></g></g><g transform="translate(193.394 74.286)"><g clip-path="url(#kh)"><rect width="5.612" height="5.399" transform="translate(-1.602 0.89) rotate(-29.049)" fill="url(#ki)"/></g></g><g transform="translate(494.579 327.376)"><g clip-path="url(#kj)"><rect width="5.015" height="6.072" transform="translate(-1.52 0.488) rotate(-17.795)" fill="url(#kk)"/></g></g><g transform="translate(261.036 97.348)"><g clip-path="url(#kl)"><rect width="6.051" height="5.941" transform="matrix(0.646, -0.763, 0.763, 0.646, -2.328, 2.751)" fill="url(#km)"/></g></g><g transform="translate(474.363 305.282)"><g clip-path="url(#kn)"><rect width="3.589" height="3.561" transform="matrix(0.416, -0.909, 0.909, 0.416, -1.031, 2.255)" fill="url(#ko)"/></g></g></g></g></svg>