<svg id="Layer_1" data-name="Layer 1" xmlns="http://www.w3.org/2000/svg" viewBox="0 0 1280 1024"><defs><style>.cls-1{fill:#5068B8;}</style></defs><path class="cls-1" d="M937.05,958.68H381.21a41.34,41.34,0,0,1-41.3-41.3V106.62a41.34,41.34,0,0,1,41.3-41.3H937.05a41.35,41.35,0,0,1,41.32,41.3V917.38A41.35,41.35,0,0,1,937.05,958.68ZM381.21,106.82l.2,810.56,555.64-.2-.18-810.36Z"/><path class="cls-1" d="M862,275.56H459.53a31,31,0,0,1-30.92-30.93V181.24a31,31,0,0,1,30.92-30.93H862a31,31,0,0,1,30.93,30.93v63.39A31,31,0,0,1,862,275.56ZM459.53,171.06a10.18,10.18,0,0,0-10.17,10.18v63.39a10.18,10.18,0,0,0,10.17,10.18H862a10.17,10.17,0,0,0,10.17-10.18V181.24A10.17,10.17,0,0,0,862,171.06Z"/><path class="cls-1" d="M522.29,396H442a12.47,12.47,0,0,1-12.46-12.45V340.68A12.47,12.47,0,0,1,442,328.23h80.25a12.45,12.45,0,0,1,12.44,12.45v42.91A12.45,12.45,0,0,1,522.29,396Zm-77.15-15.56h74V343.79h-74Z"/><path class="cls-1" d="M700.22,396H620a12.47,12.47,0,0,1-12.47-12.45V340.68A12.47,12.47,0,0,1,620,328.23h80.25a12.45,12.45,0,0,1,12.44,12.45v42.91A12.45,12.45,0,0,1,700.22,396Zm-77.15-15.56h74V343.79h-74Z"/><path class="cls-1" d="M878.14,396H797.87a12.45,12.45,0,0,1-12.44-12.45V340.68a12.45,12.45,0,0,1,12.44-12.45h80.27a12.46,12.46,0,0,1,12.45,12.45v42.91A12.46,12.46,0,0,1,878.14,396ZM801,380.48h74V343.79H801Z"/><path class="cls-1" d="M521.34,510.33H441.09a12.46,12.46,0,0,1-12.46-12.44V455a12.47,12.47,0,0,1,12.46-12.45h80.25A12.47,12.47,0,0,1,533.8,455v42.92A12.46,12.46,0,0,1,521.34,510.33Zm-77.15-15.57h74.05V458.09H444.19Z"/><path class="cls-1" d="M699.26,510.33H619a12.47,12.47,0,0,1-12.47-12.44V455A12.47,12.47,0,0,1,619,442.52h80.24A12.46,12.46,0,0,1,711.71,455v42.92A12.46,12.46,0,0,1,699.26,510.33Zm-77.14-15.57h74V458.09h-74Z"/><path class="cls-1" d="M877.19,510.33H796.94a12.46,12.46,0,0,1-12.46-12.44V455a12.47,12.47,0,0,1,12.46-12.45h80.25A12.45,12.45,0,0,1,889.63,455v42.92A12.45,12.45,0,0,1,877.19,510.33ZM800,494.76h74V458.09H800Z"/><path class="cls-1" d="M520.39,624.62H440.14a12.46,12.46,0,0,1-12.45-12.45V569.26a12.46,12.46,0,0,1,12.45-12.45h80.25a12.47,12.47,0,0,1,12.46,12.45v42.91A12.47,12.47,0,0,1,520.39,624.62Zm-77.13-15.56h74V572.37h-74Z"/><path class="cls-1" d="M698.31,624.62H618.06a12.45,12.45,0,0,1-12.44-12.45V569.26a12.45,12.45,0,0,1,12.44-12.45h80.25a12.47,12.47,0,0,1,12.47,12.45v42.91A12.47,12.47,0,0,1,698.31,624.62Zm-77.13-15.56h74V572.37h-74Z"/><path class="cls-1" d="M876.24,624.62H796a12.47,12.47,0,0,1-12.46-12.45V569.26A12.47,12.47,0,0,1,796,556.81h80.25a12.47,12.47,0,0,1,12.46,12.45v42.91A12.47,12.47,0,0,1,876.24,624.62Zm-77.15-15.56h74V572.37h-74Z"/><path class="cls-1" d="M519.45,738.91H439.18a12.45,12.45,0,0,1-12.44-12.45V683.54a12.45,12.45,0,0,1,12.44-12.44h80.27a12.46,12.46,0,0,1,12.45,12.44v42.92A12.46,12.46,0,0,1,519.45,738.91ZM442.3,723.34h74V686.66h-74Z"/><path class="cls-1" d="M697.38,738.91H617.11a12.45,12.45,0,0,1-12.44-12.45V683.54a12.45,12.45,0,0,1,12.44-12.44h80.27a12.45,12.45,0,0,1,12.44,12.44v42.92A12.45,12.45,0,0,1,697.38,738.91Zm-77.15-15.57h74V686.66h-74Z"/><path class="cls-1" d="M875.29,738.91H795a12.46,12.46,0,0,1-12.45-12.45V683.54A12.46,12.46,0,0,1,795,671.1h80.25a12.46,12.46,0,0,1,12.46,12.44v42.92A12.47,12.47,0,0,1,875.29,738.91Zm-77.13-15.57h74V686.66h-74Z"/><path class="cls-1" d="M518.5,853.2H438.23a12.46,12.46,0,0,1-12.44-12.46v-42.9a12.45,12.45,0,0,1,12.44-12.45H518.5a12.45,12.45,0,0,1,12.44,12.45v42.9A12.46,12.46,0,0,1,518.5,853.2Zm-77.15-15.56h74V801h-74Z"/><path class="cls-1" d="M696.43,853.2H616.16a12.46,12.46,0,0,1-12.44-12.46v-42.9a12.45,12.45,0,0,1,12.44-12.45h80.27a12.45,12.45,0,0,1,12.44,12.45v42.9A12.46,12.46,0,0,1,696.43,853.2Zm-77.15-15.56h74V801h-74Z"/><path class="cls-1" d="M874.35,853.2H794.08a12.46,12.46,0,0,1-12.44-12.46v-42.9a12.45,12.45,0,0,1,12.44-12.45h80.27a12.46,12.46,0,0,1,12.45,12.45v42.9A12.47,12.47,0,0,1,874.35,853.2Zm-77.14-15.56h74V801h-74Z"/></svg>