<svg xmlns="http://www.w3.org/2000/svg" width="18.205" height="16" viewBox="0 0 18.205 16"><path d="M12.871,14.4a1.6,1.6,0,1,1,1.6,1.6A1.6,1.6,0,0,1,12.871,14.4Zm1.067,0a.533.533,0,1,0,.533-.533A.534.534,0,0,0,13.938,14.4Zm-8.6,0a1.6,1.6,0,1,1,1.6,1.6A1.6,1.6,0,0,1,5.333,14.4Zm1.067,0a.533.533,0,1,0,.533-.533A.534.534,0,0,0,6.4,14.4Zm-.533-1.6a1.6,1.6,0,0,1-.635-3.068L3.306,1.067H.533A.533.533,0,1,1,.533,0h3.2a.534.534,0,0,1,.521.418l.381,1.716H17.671a.533.533,0,0,1,.513.68L16.051,10.28a.534.534,0,0,1-.513.387H5.865a.533.533,0,0,0,0,1.067h9.671a.533.533,0,1,1,0,1.067Zm.428-3.2h8.841l1.829-6.4H4.872Z"/></svg>