<svg id="Layer_1" data-name="Layer 1" xmlns="http://www.w3.org/2000/svg" viewBox="0 0 1280 1024"><defs><style>.cls-1{fill:#5068B8;}</style></defs><path class="cls-1" d="M576.39,488.78H190.08a46.9,46.9,0,0,1-46.86-46.85V100.65A46.9,46.9,0,0,1,190.08,53.8H576.39a46.9,46.9,0,0,1,46.84,46.85V441.93A46.9,46.9,0,0,1,576.39,488.78ZM190.08,100.55,190,441.93l386.47.1,0-341.38Z"/><path class="cls-1" d="M574,968.26H187.71a46.92,46.92,0,0,1-46.87-46.84V580.14a46.92,46.92,0,0,1,46.87-46.86H574a46.91,46.91,0,0,1,46.86,46.86V921.42A46.91,46.91,0,0,1,574,968.26ZM187.71,580l-.12,341.39,386.41.09h0l.07-341.37Z"/><path class="cls-1" d="M1092.29,490.72H706a46.91,46.91,0,0,1-46.86-46.86V102.6A46.91,46.91,0,0,1,706,55.74h386.29a46.92,46.92,0,0,1,46.87,46.86V443.86A46.92,46.92,0,0,1,1092.29,490.72ZM706,102.49l-.11,341.37,386.4.11h.07l.05-341.37Z"/><path class="cls-1" d="M1089.92,970.2H703.63a46.91,46.91,0,0,1-46.86-46.86V582.08a46.91,46.91,0,0,1,46.86-46.86h386.29a46.91,46.91,0,0,1,46.86,46.86V923.34A46.91,46.91,0,0,1,1089.92,970.2ZM703.63,582l-.12,341.37,386.46.11.06-341.37Z"/></svg>