<svg xmlns="http://www.w3.org/2000/svg" viewBox="0 0 19.99 13.85"><title>Delivery</title><g id="Layer_2" data-name="Layer 2"><g id="Layer_1-2" data-name="Layer 1"><path d="M0,5.52a.78.78,0,0,1,.83-.47H5.92a.69.69,0,0,1,.6.27.62.62,0,0,1-.52,1H2.84c-.66,0-1.32,0-2,0A.83.83,0,0,1,0,5.87Z" fill="#88b750"/><path d="M4.34,3.84H1.69a.64.64,0,0,1-.63-.44.62.62,0,0,1,.22-.69.55.55,0,0,1,.36-.13H7a.61.61,0,0,1,.62.62A.62.62,0,0,1,7,3.84Z" fill="#88b750"/><path d="M3.11,7.54h1.4a.63.63,0,0,1,.68.63.63.63,0,0,1-.68.62c-.94,0-1.87,0-2.81,0A.64.64,0,0,1,1,8.16a.63.63,0,0,1,.68-.62Z" fill="#88b750"/><path d="M19.38,6.25a8.45,8.45,0,0,1-.82-1.14C18,4,17.42,2.85,16.86,1.71a.76.76,0,0,0-.74-.46c-.7,0-1.39,0-2.09,0-.48,0-.48,0-.48-.49S13.33,0,12.78,0H2.34a.61.61,0,0,0-.55.56.64.64,0,0,0,.72.69h9.56c.18,0,.23.05.23.23,0,1.35,0,2.71,0,4.06,0,.53.23.76.76.76h4.59a.29.29,0,0,1,.27.11c.24.33.5.65.75,1a.32.32,0,0,1,.08.21v3c0,.11,0,.14-.15.14h-.86a.2.2,0,0,1-.24-.17,2.51,2.51,0,0,0-4.78,0c-.05.13-.1.17-.23.17H9.12a.21.21,0,0,1-.24-.18A2.55,2.55,0,0,0,6.5,8.81a2.52,2.52,0,0,0-2.4,1.75.2.2,0,0,1-.23.16H2.46a.64.64,0,1,0,0,1.27H3.89a.2.2,0,0,1,.22.15,2.51,2.51,0,0,0,4.76,0A.19.19,0,0,1,9.09,12h3.42a.19.19,0,0,1,.21.14,2.51,2.51,0,0,0,4.76,0,.18.18,0,0,1,.21-.15c.48,0,.95,0,1.43,0a.79.79,0,0,0,.87-.46V7.12A5.9,5.9,0,0,0,19.38,6.25ZM16.92,5h-3.2c-.14,0-.18,0-.17-.17V2.68c0-.14,0-.17.17-.17.66,0,1.31,0,2,0a.23.23,0,0,1,.23.13c.36.75.73,1.49,1.12,2.23C17.12,5,17.06,5,16.92,5ZM6.47,12.59a1.26,1.26,0,0,1,0-2.51,1.23,1.23,0,0,1,1.24,1.26A1.25,1.25,0,0,1,6.47,12.59Zm8.63,0a1.26,1.26,0,1,1,0-2.51,1.26,1.26,0,1,1,0,2.51Z" fill="#88b750"/></g></g></svg>