<svg xmlns="http://www.w3.org/2000/svg" width="17.25" height="13.801" viewBox="0 0 17.25 13.801"><path d="M10.35,8.625H6.9a.863.863,0,0,0-.862.862v3.45A.863.863,0,0,0,6.9,13.8h3.45a.863.863,0,0,0,.862-.862V9.487A.863.863,0,0,0,10.35,8.625ZM5.175.862A.863.863,0,0,0,4.312,0H.862A.863.863,0,0,0,0,.862v3.45a.863.863,0,0,0,.862.862h2.58L5.414,8.626A1.719,1.719,0,0,1,6.9,7.762h.008L5.175,4.73V3.45h6.037V1.725H5.175ZM16.387,0h-3.45a.863.863,0,0,0-.862.862v3.45a.863.863,0,0,0,.862.862h3.45a.863.863,0,0,0,.862-.862V.862A.863.863,0,0,0,16.387,0Z" fill="#89b850"/></svg>