<svg id="Layer_1" data-name="Layer 1" xmlns="http://www.w3.org/2000/svg" viewBox="0 0 1280 1024"><defs><style>.cls-1{fill:#5068B8;}.cls-2{fill:none;}</style></defs><path class="cls-1" d="M1008.24,948.69H271.76a75.62,75.62,0,0,1-75.56-75.56V377.59a65.91,65.91,0,0,1,31.14-56.21L604.84,85.32a66.74,66.74,0,0,1,70.32,0l377.48,236.07a65.88,65.88,0,0,1,31.16,56.2V873.13A75.62,75.62,0,0,1,1008.24,948.69ZM625.67,118.62,248.17,354.68a26.85,26.85,0,0,0-12.7,22.91V873.13a36.33,36.33,0,0,0,36.29,36.29h736.48a36.33,36.33,0,0,0,36.29-36.29V377.59a26.87,26.87,0,0,0-12.7-22.9L654.33,118.62a27,27,0,0,0-28.66,0Z"/><rect class="cls-2" x="640" y="638.96" width="290.09" height="290.09" rx="1"/><path class="cls-1" d="M910.37,948.69H659.74a39.42,39.42,0,0,1-39.39-39.37V658.69a39.42,39.42,0,0,1,39.39-39.37H910.37a39.42,39.42,0,0,1,39.37,39.37V909.32A39.42,39.42,0,0,1,910.37,948.69ZM659.74,658.59l-.11,250.73,250.74.1.09-250.73-.09-.1Z"/><rect class="cls-2" x="494.95" y="348.85" width="290.09" height="290.09" rx="0.99"/><path class="cls-1" d="M765.6,658.58H514.4a39.12,39.12,0,0,1-39.08-39.08V368.29a39.12,39.12,0,0,1,39.08-39.08H765.6a39.12,39.12,0,0,1,39.08,39.08V619.5A39.12,39.12,0,0,1,765.6,658.58ZM514.4,368.48l.19,251,251-.19-.19-250.83Z"/><rect class="cls-2" x="349.9" y="638.94" width="290.09" height="290.09" rx="1.01"/><path class="cls-1" d="M620.26,948.67H369.65a39.42,39.42,0,0,1-39.39-39.37V658.69a39.43,39.43,0,0,1,39.39-39.38H620.26a39.42,39.42,0,0,1,39.37,39.38V909.3A39.41,39.41,0,0,1,620.26,948.67ZM369.65,658.58l-.11,250.72,250.72.1.09-250.71-.09-.11Z"/></svg>