<svg id="Layer_1" data-name="Layer 1" xmlns="http://www.w3.org/2000/svg" viewBox="0 0 1280 1024"><defs><style>.cls-1{fill:#5068B8;}</style></defs><path class="cls-1" d="M1013.39,57.82l-210,100.77a6.69,6.69,0,0,0-.88,11.54l192.29,131.5a6.68,6.68,0,0,0,10.43-5l17.74-232.28A6.67,6.67,0,0,0,1013.39,57.82Z"/><path class="cls-1" d="M279.59,652.08a23.38,23.38,0,0,1-16.86-39.56L436.29,431.84a23.31,23.31,0,0,1,16.42-7.19L702.59,420,943.9,151.45a23.38,23.38,0,1,1,34.79,31.23L730.58,458.76a23.46,23.46,0,0,1-17,7.76l-250.34,4.7L296.45,644.89A23.27,23.27,0,0,1,279.59,652.08Z"/><path class="cls-1" d="M376.22,941.88a23.38,23.38,0,0,1-23.38-23.38v-208a23.38,23.38,0,0,1,46.75,0v208A23.37,23.37,0,0,1,376.22,941.88Z"/><path class="cls-1" d="M564.88,941.88A23.37,23.37,0,0,1,541.5,918.5V589.12a23.38,23.38,0,0,1,46.75,0V918.5A23.36,23.36,0,0,1,564.88,941.88Z"/><path class="cls-1" d="M756,941.88a23.37,23.37,0,0,1-23.38-23.38V517.1a23.38,23.38,0,0,1,46.75,0V918.5A23.36,23.36,0,0,1,756,941.88Z"/><path class="cls-1" d="M940.34,941.88c-12.92,0-23.37-10-23.37-22.25V368c0-12.29,10.45-22.24,23.37-22.24s23.38,9.95,23.38,22.24V919.63C963.72,931.93,953.26,941.88,940.34,941.88Z"/></svg>