<svg id="Layer_1" data-name="Layer 1" xmlns="http://www.w3.org/2000/svg" viewBox="0 0 1280 1024"><defs><style>.cls-1{fill:#5068B8;}</style></defs><path class="cls-1" d="M925.43,672.87H449c-23.48,0-42.57-19.4-42.57-43.25V309.38c0-23.84,19.09-43.24,42.57-43.24h598.6a42.42,42.42,0,0,1,34.88,18.43,43.83,43.83,0,0,1,4.83,40.44L965.14,645.25A42.36,42.36,0,0,1,925.43,672.87ZM449,305.67c-1.64,0-3,1.7-3,3.71V629.62c0,2,1.39,3.71,3,3.71h476.4a3.14,3.14,0,0,0,2.78-2.19l122.18-320.22A4.13,4.13,0,0,0,1050,307a2.63,2.63,0,0,0-2.32-1.34Z"/><path class="cls-1" d="M952.44,774.12H691.52c-129,0-216.12-24.77-259-73.63-29.61-33.72-26.37-66.14-25.88-69.73a19.76,19.76,0,0,1,39.22,4.8c-.09,1.29-1.19,19.69,17.55,40.18,24.58,26.86,84.07,58.84,228.11,58.84H952.44a19.77,19.77,0,0,1,0,39.54Z"/><path class="cls-1" d="M948.35,920.8a93.11,93.11,0,1,1,93.1-93.11A93.23,93.23,0,0,1,948.35,920.8Zm0-146.68a53.57,53.57,0,1,0,53.57,53.57A53.64,53.64,0,0,0,948.35,774.12Z"/><path class="cls-1" d="M588.12,920.8a93.11,93.11,0,1,1,93.11-93.11A93.23,93.23,0,0,1,588.12,920.8Zm0-146.68a53.57,53.57,0,1,0,53.57,53.57A53.64,53.64,0,0,0,588.12,774.12Z"/><path class="cls-1" d="M426.25,354.24a19.34,19.34,0,0,1-3.11-.24,19.77,19.77,0,0,1-16.45-22.57h0c.12-.76,11.14-77-35.61-132.59C338,159.5,283.51,138.78,209.15,137.25A19.77,19.77,0,0,1,210,97.71c86.48,1.79,151,27.38,191.68,76.05,58.24,69.66,44.73,160,44.11,163.81A19.77,19.77,0,0,1,426.25,354.24Z"/></svg>