<svg id="Layer_1" data-name="Layer 1" xmlns="http://www.w3.org/2000/svg" viewBox="0 0 1280 1024"><defs><style>.cls-1{fill:none;}.cls-2{fill:#5068B8;}</style></defs><rect class="cls-1" x="345" y="88.18" width="601.33" height="844.72" rx="0.99"/><path class="cls-2" d="M926.64,952.79H364.7a39.63,39.63,0,0,1-39.59-39.58V107.87A39.62,39.62,0,0,1,364.7,68.3H926.64a39.6,39.6,0,0,1,39.57,39.57V913.21A39.61,39.61,0,0,1,926.64,952.79ZM364.7,108.07l.18,805.14,561.76-.2-.2-804.94Z"/><rect class="cls-1" x="333.67" y="176.91" width="513.64" height="758.82" rx="0.99"/><path class="cls-2" d="M827.62,955.62H353.36A39.61,39.61,0,0,1,313.79,916V196.61A39.61,39.61,0,0,1,353.36,157H827.62a39.62,39.62,0,0,1,39.58,39.58V916A39.62,39.62,0,0,1,827.62,955.62ZM353.36,196.8l.2,719.24,474.06-.19-.19-719Z"/><path class="cls-2" d="M767.07,308.66H413.91a19.89,19.89,0,0,1,0-39.77H767.07a19.89,19.89,0,1,1,0,39.77Z"/><path class="cls-2" d="M767.07,421.41H413.91a19.89,19.89,0,0,1,0-39.77H767.07a19.89,19.89,0,1,1,0,39.77Z"/><path class="cls-2" d="M767.07,534.15H413.91a19.89,19.89,0,0,1,0-39.77H767.07a19.89,19.89,0,1,1,0,39.77Z"/></svg>