<svg xmlns="http://www.w3.org/2000/svg" width="38" height="38" viewBox="0 0 38 38"><defs><style>.a{fill:#bfbfbf;}.b{fill:#fff;}</style></defs><g transform="translate(0.416 0.416)"><circle class="a" cx="19" cy="19" r="19" transform="translate(-0.416 -0.416)"/><g transform="translate(9.122 11.306)"><path class="b" d="M154.193,325.411a1.172,1.172,0,0,1-.826-.341,9.559,9.559,0,0,0-13.207,0,1.167,1.167,0,0,1-1.651-1.651,11.67,11.67,0,0,1,16.508,0,1.168,1.168,0,0,1,0,1.651A1.153,1.153,0,0,1,154.193,325.411Z" transform="translate(-137.303 -308.053)"/><circle class="b" cx="2.5" cy="2.5" r="2.5" transform="translate(0.462 0.277)"/><circle class="b" cx="2.5" cy="2.5" r="2.5" transform="translate(13.462 0.277)"/></g></g></svg>