<svg id="_1._Right_Purchase_Icon" data-name="1. Right Purchase Icon" xmlns="http://www.w3.org/2000/svg" width="16" height="16" viewBox="0 0 16 16">
  <circle id="Ellipse_140" data-name="Ellipse 140" cx="1.5" cy="1.5" r="1.5" transform="translate(3 13)" fill="#89b850"/>
  <circle id="Ellipse_141" data-name="Ellipse 141" cx="1.5" cy="1.5" r="1.5" transform="translate(10 13)" fill="#89b850"/>
  <path id="Path_476" data-name="Path 476" d="M20.667,2H19.333V.667A.667.667,0,0,0,18,.667V2H16.667a.667.667,0,1,0,0,1.333H18V4.667a.667.667,0,0,0,1.333,0V3.333h1.333a.667.667,0,0,0,0-1.333Z" transform="translate(-5.333)" fill="#89b850"/>
  <path id="Path_477" data-name="Path 477" d="M14.514,6.484a.663.663,0,0,0-.775.537,2,2,0,0,1-1.968,1.645H3.612L2.985,3.333H8.667A.667.667,0,1,0,8.667,2H2.828L2.8,1.765A2,2,0,0,0,.815,0H.667a.667.667,0,0,0,0,1.333H.815a.667.667,0,0,1,.662.589l.917,7.8A3.333,3.333,0,0,0,5.7,12.667h6.962a.667.667,0,1,0,0-1.333H5.7A2,2,0,0,1,3.819,10h7.953a3.333,3.333,0,0,0,3.281-2.742.667.667,0,0,0-.538-.774Z" fill="#89b850"/>
</svg>
