<svg id="_2._Sale_New" data-name="2. Sale New" xmlns="http://www.w3.org/2000/svg" width="16" height="16" viewBox="0 0 16 16">
  <path id="Path_478" data-name="Path 478" d="M20.667,18H19.333V16.667a.667.667,0,1,0-1.333,0V18H16.667a.667.667,0,1,0,0,1.333H18v1.333a.667.667,0,0,0,1.333,0V19.333h1.333a.667.667,0,0,0,0-1.333Z" transform="translate(-5.333 -5.333)" fill="#89b850"/>
  <path id="Path_479" data-name="Path 479" d="M14,4H12A4,4,0,1,0,4,4H2A2,2,0,0,0,0,6v6.667A3.337,3.337,0,0,0,3.333,16h6a.667.667,0,0,0,0-1.333h-6a2,2,0,0,1-2-2V6A.667.667,0,0,1,2,5.333H4V6.667a.667.667,0,0,0,1.333,0V5.333h5.333V6.667a.667.667,0,1,0,1.333,0V5.333h2A.667.667,0,0,1,14.667,6V9.333a.667.667,0,0,0,1.333,0V6A2,2,0,0,0,14,4ZM5.333,4a2.667,2.667,0,0,1,5.333,0Z" fill="#89b850"/>
</svg>
