<svg id="_2._Sales" data-name="2. Sales" xmlns="http://www.w3.org/2000/svg" width="17.457" height="17.457" viewBox="0 0 17.457 17.457">
  <path id="Path_467" data-name="Path 467" d="M4,15.275a1.818,1.818,0,0,1-1.818-1.818V1.091A1.091,1.091,0,0,0,1.091,0h0A1.091,1.091,0,0,0,0,1.091V13.456a4,4,0,0,0,4,4H16.366a1.091,1.091,0,0,0,1.091-1.091h0a1.091,1.091,0,0,0-1.091-1.091Z" fill="#fff"/>
  <path id="Path_468" data-name="Path 468" d="M19.091,15.546a1.091,1.091,0,0,0,1.091-1.091V10.091a1.091,1.091,0,0,0-2.182,0v4.364A1.091,1.091,0,0,0,19.091,15.546Z" transform="translate(-4.907 -2.454)" fill="#fff"/>
  <path id="Path_469" data-name="Path 469" d="M7.091,15.546a1.091,1.091,0,0,0,1.091-1.091V10.091a1.091,1.091,0,0,0-2.182,0v4.364A1.091,1.091,0,0,0,7.091,15.546Z" transform="translate(-1.636 -2.454)" fill="#fff"/>
  <path id="Path_470" data-name="Path 470" d="M13.091,14.183a1.091,1.091,0,0,0,1.091-1.091v-8a1.091,1.091,0,0,0-2.182,0v8A1.091,1.091,0,0,0,13.091,14.183Z" transform="translate(-3.271 -1.09)" fill="#fff"/>
</svg>
