<svg xmlns="http://www.w3.org/2000/svg" width="16.964" height="14.55" viewBox="0 0 16.964 14.55">
  <path id="_3._Return_New" data-name="3. Return New" d="M16.256,17.964a.707.707,0,0,1-.707-.707,4.245,4.245,0,0,0-4.241-4.241H7.188v1.121a1.414,1.414,0,0,1-2.413,1L.619,10.982a2.12,2.12,0,0,1,0-3L4.775,3.828a1.414,1.414,0,0,1,2.413,1V5.949H10.6a6.368,6.368,0,0,1,6.361,6.361v4.948A.707.707,0,0,1,16.256,17.964ZM5.774,4.828,1.619,8.983a.707.707,0,0,0,0,1l4.155,4.155V12.31a.707.707,0,0,1,.707-.707h4.827a5.643,5.643,0,0,1,4.241,1.918V12.31A4.953,4.953,0,0,0,10.6,7.362H6.481a.707.707,0,0,1-.707-.707Z" transform="translate(0.001 -3.414)" fill="#87b64f"/>
</svg>
