<svg xmlns="http://www.w3.org/2000/svg" width="17.964" height="16.467" viewBox="0 0 17.964 16.467">
  <path id="_4._New_Project" data-name="4. New Project" d="M11.976,11.479a.749.749,0,0,1-.749.749h-1.5v1.5a.749.749,0,1,1-1.5,0v-1.5h-1.5a.749.749,0,1,1,0-1.5h1.5v-1.5a.749.749,0,0,1,1.5,0v1.5h1.5A.749.749,0,0,1,11.976,11.479Zm5.988-5.24v7.485a3.747,3.747,0,0,1-3.743,3.743H3.743A3.747,3.747,0,0,1,0,13.725V4.743A3.747,3.747,0,0,1,3.743,1H5.635a2.256,2.256,0,0,1,1,.237L9,2.422a.76.76,0,0,0,.335.075h4.886A3.747,3.747,0,0,1,17.964,6.24ZM1.5,4.743v.749H16.33a2.246,2.246,0,0,0-2.108-1.5H9.335a2.256,2.256,0,0,1-1-.237L5.969,2.576A.76.76,0,0,0,5.635,2.5H3.743A2.246,2.246,0,0,0,1.5,4.743Zm14.97,8.982V6.988H1.5v6.737A2.246,2.246,0,0,0,3.743,15.97H14.222A2.246,2.246,0,0,0,16.467,13.725Z" transform="translate(0 -1)" fill="#89b850"/>
</svg>
