<svg xmlns="http://www.w3.org/2000/svg" width="20.964" height="20.964" viewBox="0 0 20.964 20.964">
  <path id="_5._Extras_New" data-name="5. Extras New" d="M10.482,0A10.482,10.482,0,1,0,20.964,10.482,10.482,10.482,0,0,0,10.482,0Zm0,19.217a8.735,8.735,0,1,1,8.735-8.735A8.735,8.735,0,0,1,10.482,19.217Zm4.368-8.735a.874.874,0,0,1-.874.874H11.356v2.621a.874.874,0,1,1-1.747,0V11.356H6.988a.874.874,0,1,1,0-1.747H9.609V6.988a.874.874,0,1,1,1.747,0V9.609h2.621A.874.874,0,0,1,14.85,10.482Z" fill="#89b850"/>
</svg>
