<svg id="Component_8_1" data-name="Component 8 – 1" xmlns="http://www.w3.org/2000/svg" width="42.781" height="37.6" viewBox="0 0 42.781 37.6">
  <path id="Union_5" data-name="Union 5" d="M30.248,33.84a3.76,3.76,0,1,1,3.76,3.76A3.764,3.764,0,0,1,30.248,33.84Zm2.506,0a1.253,1.253,0,1,0,1.253-1.253A1.255,1.255,0,0,0,32.754,33.84Zm-20.22,0a3.76,3.76,0,1,1,3.759,3.76A3.764,3.764,0,0,1,12.534,33.84Zm2.506,0a1.253,1.253,0,1,0,1.253-1.253A1.255,1.255,0,0,0,15.04,33.84Zm-1.253-3.76a3.76,3.76,0,0,1-1.494-7.21C12.056,21.8,7.926,3.221,7.768,2.507H1.253A1.253,1.253,0,1,1,1.253,0h7.52A1.254,1.254,0,0,1,10,.982l.9,4.032H41.527a1.253,1.253,0,0,1,1.206,1.6L37.719,24.158a1.254,1.254,0,0,1-1.206.909H13.784a1.253,1.253,0,0,0,0,2.506H36.514a1.253,1.253,0,1,1,0,2.507Zm1-7.52H35.568l4.3-15.04H11.45Z" fill="#89b850"/>
</svg>
