<svg xmlns="http://www.w3.org/2000/svg" width="34.653" height="34.765" viewBox="0 0 34.653 34.765">
  <g id="Sold_Icon" data-name="Sold Icon" transform="translate(0.5 0.517)">
    <path id="Path_464" data-name="Path 464" d="M78.864,43.512c-.213-.206-2.227-1.114-7.85-3.623-4.34-1.927-7.575-3.32-8.027-3.479-.407.081-2.824,1.141-7.966,3.431-1.027.459-2.9,1.295-4.568,2.054s-3.14,1.443-3.365,1.6l-.088.1V62.9l.081.087c.231.149,1.788.9,7.743,3.542,6.671,2.96,7.855,3.468,7.971,3.508.161.057.182.06.217.052a3.915,3.915,0,0,0,.58-.268c.865-.436.82-.584.747-.827a.6.6,0,0,0-.5-.407,1.292,1.292,0,0,0-.39.133l-.013.006-.483.222-14.909-6.62V53.638c0-2.213.006-4.343.015-6,0-.766.01-1.4.015-1.825,0-.217.006-.386.009-.5,0-.183.013-.487.331-.487a14.542,14.542,0,0,1,2.274.966c1.345.593,3.148,1.394,5.079,2.254,4.553,2.022,6.843,3.024,7.252,3.116.452-.17,3.481-1.488,7.154-3.124,6.309-2.806,7.048-3.123,7.185-3.169h0a.366.366,0,0,1,.33.052c.176.13.2.345.211.975.011.517.014,1.346.014,3.009a33.257,33.257,0,0,0,.075,3.745.556.556,0,0,0,.392.233.531.531,0,0,0,.4-.18l.18-.18V48.115C78.963,44.413,78.955,43.685,78.864,43.512ZM54.971,46.321h0a.254.254,0,0,1-.081.014,13.931,13.931,0,0,1-2.65-1.047c-.572-.249-2.459-1.072-2.679-1.234a.333.333,0,0,1-.145-.271c0-.208.147-.278.322-.36.089-.043.221-.1.39-.182.336-.155.815-.372,1.424-.644,1.256-.564,2.916-1.31,4.675-2.093l6.746-3,2.683,1.184c2.646,1.179,2.657,1.221,2.691,1.418l.031.167-.122.124c-.055.055-.091.091-6.627,2.995C58.738,44.677,55.277,46.21,54.971,46.321Zm21.259-2.174-.391.181c-.337.155-.824.374-1.425.644-1.117.5-2.693,1.208-4.682,2.093l-6.758,3-3.125-1.386c-.787-.349-1.54-.689-2.121-.956-.275-.126-.494-.229-.644-.3-.287-.138-.419-.2-.419-.412V46.96c.025-.176.139-.23.328-.322.1-.046.242-.112.419-.194.347-.161.846-.386,1.484-.673,1.2-.54,2.8-1.255,4.5-2.013,6.054-2.693,6.633-2.919,6.747-2.941h0c.1-.013.193-.024,3.245,1.321h0c.815.361,1.559.7,2.1.94.276.126.491.225.64.3.287.136.417.2.417.411s-.147.277-.321.358Z" transform="translate(-47 -36.41)" fill="#89b850" stroke="#89b850" stroke-width="1"/>
    <path id="Path_465" data-name="Path 465" d="M269.267,249.27a6.153,6.153,0,0,0-1.852,0,8.252,8.252,0,1,0,4.839,15.468,8.121,8.121,0,0,0,4.34-7.261A8.213,8.213,0,0,0,269.267,249.27Zm1.039,15.126a7.966,7.966,0,0,1-2.035.237,6.808,6.808,0,0,1-1.307-.11,6.648,6.648,0,0,1-3.682-2.028,5.036,5.036,0,0,1-1.292-1.736,7.272,7.272,0,0,1-.107-6.376,7.3,7.3,0,0,1,5.014-3.95,9.594,9.594,0,0,1,3.406.126h0a7.3,7.3,0,0,1,4.952,4.934,8.642,8.642,0,0,1,0,3.97,7.3,7.3,0,0,1-4.947,4.933Z" transform="translate(-242.94 -232.068)" fill="#89b850" stroke="#89b850" stroke-width="1"/>
    <path id="Path_466" data-name="Path 466" d="M306.23,325.27l3.121,3.377,6.179-5.8" transform="translate(-285.359 -299.789)" fill="none" stroke="#89b850" stroke-linecap="round" stroke-linejoin="round" stroke-width="2"/>
  </g>
</svg>
