<svg xmlns="http://www.w3.org/2000/svg" width="42.781" height="37.6" viewBox="0 0 42.781 37.6"><defs><style>.a{fill:#5068B8;}</style></defs><path class="a" d="M-2920.752-926.16a3.764,3.764,0,0,1,3.76-3.76,3.764,3.764,0,0,1,3.76,3.76,3.764,3.764,0,0,1-3.76,3.76A3.764,3.764,0,0,1-2920.752-926.16Zm2.506,0a1.255,1.255,0,0,0,1.253,1.253,1.255,1.255,0,0,0,1.253-1.253,1.255,1.255,0,0,0-1.253-1.253A1.255,1.255,0,0,0-2918.246-926.16Zm-20.22,0a3.764,3.764,0,0,1,3.759-3.76,3.764,3.764,0,0,1,3.76,3.76,3.764,3.764,0,0,1-3.76,3.76A3.764,3.764,0,0,1-2938.466-926.16Zm2.506,0a1.255,1.255,0,0,0,1.253,1.253,1.255,1.255,0,0,0,1.254-1.253,1.255,1.255,0,0,0-1.254-1.253A1.255,1.255,0,0,0-2935.96-926.16Zm-1.253-3.76a3.764,3.764,0,0,1-3.76-3.76,3.765,3.765,0,0,1,2.266-3.45c-.237-1.069-4.367-19.649-4.525-20.364h-6.515a1.253,1.253,0,0,1-1.253-1.253,1.253,1.253,0,0,1,1.253-1.254h7.52a1.254,1.254,0,0,1,1.224.982l.9,4.032h30.634a1.255,1.255,0,0,1,1,.5,1.255,1.255,0,0,1,.2,1.1l-5.013,17.547a1.254,1.254,0,0,1-1.206.909h-22.73a1.254,1.254,0,0,0-1.25,1.253,1.255,1.255,0,0,0,1.253,1.253h22.727a1.253,1.253,0,0,1,1.253,1.253,1.253,1.253,0,0,1-1.253,1.253Zm1-7.52h20.777l4.3-15.04h-28.416Z" transform="translate(2951 960)"/></svg>