<svg xmlns="http://www.w3.org/2000/svg" width="58" height="40" viewBox="0 0 58 40"><defs><style>.a{fill:#fff;}.a,.b{stroke:#5068B8;stroke-width:2px;}.b,.d{fill:none;}.c{stroke:none;}</style></defs><g transform="translate(-1023 -508)"><g class="a" transform="translate(1024 539)"><ellipse class="c" cx="23.5" cy="4.5" rx="23.5" ry="4.5"/><ellipse class="d" cx="23.5" cy="4.5" rx="22.5" ry="3.5"/></g><g class="a" transform="translate(1024 534)"><ellipse class="c" cx="23.5" cy="4.5" rx="23.5" ry="4.5"/><ellipse class="d" cx="23.5" cy="4.5" rx="22.5" ry="3.5"/></g><path class="b" d="M3975.466,538.5v5.165" transform="translate(-2950)"/><path class="b" d="M3975.466,538.5v5.165" transform="translate(-2906)"/></g><g transform="translate(-1018 -513)"><g class="a" transform="translate(1024 539)"><ellipse class="c" cx="23.5" cy="4.5" rx="23.5" ry="4.5"/><ellipse class="d" cx="23.5" cy="4.5" rx="22.5" ry="3.5"/></g><g class="a" transform="translate(1024 534)"><ellipse class="c" cx="23.5" cy="4.5" rx="23.5" ry="4.5"/><ellipse class="d" cx="23.5" cy="4.5" rx="22.5" ry="3.5"/></g><path class="b" d="M3975.466,538.5v5.165" transform="translate(-2950)"/><path class="b" d="M3975.466,538.5v5.165" transform="translate(-2906)"/></g><g transform="translate(-1024 -520)"><g class="a" transform="translate(1024 539)"><ellipse class="c" cx="23.5" cy="4.5" rx="23.5" ry="4.5"/><ellipse class="d" cx="23.5" cy="4.5" rx="22.5" ry="3.5"/></g><g class="a" transform="translate(1024 534)"><ellipse class="c" cx="23.5" cy="4.5" rx="23.5" ry="4.5"/><ellipse class="d" cx="23.5" cy="4.5" rx="22.5" ry="3.5"/></g><path class="b" d="M3975.466,538.5v5.165" transform="translate(-2950)"/><path class="b" d="M3975.466,538.5v5.165" transform="translate(-2906)"/></g><g transform="translate(-1013 -527)"><g class="a" transform="translate(1024 539)"><ellipse class="c" cx="23.5" cy="4.5" rx="23.5" ry="4.5"/><ellipse class="d" cx="23.5" cy="4.5" rx="22.5" ry="3.5"/></g><g class="a" transform="translate(1024 534)"><ellipse class="c" cx="23.5" cy="4.5" rx="23.5" ry="4.5"/><ellipse class="d" cx="23.5" cy="4.5" rx="22.5" ry="3.5"/></g><path class="b" d="M3975.466,538.5v5.165" transform="translate(-2950)"/><path class="b" d="M3975.466,538.5v5.165" transform="translate(-2906)"/></g><g transform="translate(-1022 -534)"><g class="a" transform="translate(1024 539)"><ellipse class="c" cx="23.5" cy="4.5" rx="23.5" ry="4.5"/><ellipse class="d" cx="23.5" cy="4.5" rx="22.5" ry="3.5"/></g><g class="a" transform="translate(1024 534)"><ellipse class="c" cx="23.5" cy="4.5" rx="23.5" ry="4.5"/><ellipse class="d" cx="23.5" cy="4.5" rx="22.5" ry="3.5"/></g><path class="b" d="M3975.466,538.5v5.165" transform="translate(-2950)"/><path class="b" d="M3975.466,538.5v5.165" transform="translate(-2906)"/></g></svg>