<svg xmlns="http://www.w3.org/2000/svg" width="13.633" height="12.116" viewBox="0 0 13.633 12.116"><defs><style>.a{fill:#5068B8;}</style></defs><path class="a" d="M9.529,1.974l2.135,2.135a.231.231,0,0,1,0,.327L6.495,9.6l-2.2.244a.46.46,0,0,1-.509-.509l.244-2.2L9.2,1.974A.231.231,0,0,1,9.529,1.974Zm3.834-.542L12.208.277a.926.926,0,0,0-1.307,0l-.838.838a.231.231,0,0,0,0,.327L12.2,3.576a.231.231,0,0,0,.327,0l.838-.838a.926.926,0,0,0,0-1.306ZM9.089,8.2v2.409H1.515V3.034H6.954a.291.291,0,0,0,.2-.083L8.1,2a.284.284,0,0,0-.2-.485H1.136A1.136,1.136,0,0,0,0,2.656v8.331a1.136,1.136,0,0,0,1.136,1.136H9.467A1.136,1.136,0,0,0,10.6,10.987V7.252a.285.285,0,0,0-.485-.2L9.172,8A.291.291,0,0,0,9.089,8.2Z" transform="translate(0 -0.007)"/></svg>