<svg xmlns="http://www.w3.org/2000/svg" xmlns:xlink="http://www.w3.org/1999/xlink" width="42" height="42" viewBox="0 0 42 42"><defs><style>.a{fill:#5068B8;}.b{fill:#fff;}.c{filter:url(#a);}</style><filter id="a" x="0" y="0" width="42" height="42" filterUnits="userSpaceOnUse"><feOffset dy="3" input="SourceAlpha"/><feGaussianBlur stdDeviation="3" result="b"/><feFlood flood-color="#5068B8" flood-opacity="0.161"/><feComposite operator="in" in2="b"/><feComposite in="SourceGraphic"/></filter></defs><g transform="translate(9 6)"><g class="c" transform="matrix(1, 0, 0, 1, -9, -6)"><circle class="a" cx="12" cy="12" r="12" transform="translate(9 6)"/></g><path class="b" d="M-4358.714-948a1.286,1.286,0,0,1-1.286-1.286v-8.571a1.286,1.286,0,0,1,1.286-1.286h5.143a.428.428,0,0,1,.428.428.428.428,0,0,1-.428.429h-5.143a.429.429,0,0,0-.429.429v8.571a.429.429,0,0,0,.429.429H-4351a.429.429,0,0,0,.429-.429v-4.286a.428.428,0,0,1,.428-.429.429.429,0,0,1,.429.429v4.286A1.286,1.286,0,0,1-4351-948Zm1.579-2.593a.429.429,0,0,1-.271-.542l.857-2.571a.437.437,0,0,1,.1-.168l5.645-5.645a1.629,1.629,0,0,1,1.16-.481,1.641,1.641,0,0,1,1.16.481,1.641,1.641,0,0,1,0,2.32l-5.645,5.645a.427.427,0,0,1-.168.1l-2.571.857a.44.44,0,0,1-.136.022A.431.431,0,0,1-4357.135-950.594Zm6.94-8.318-5.574,5.571-.554,1.662,1.665-.556,5.571-5.571a.779.779,0,0,0,.229-.554.781.781,0,0,0-.229-.551.783.783,0,0,0-.555-.23A.782.782,0,0,0-4350.195-958.912Z" transform="translate(4366 966)"/></g></svg>