<svg id="Layer_1" data-name="Layer 1" xmlns="http://www.w3.org/2000/svg" viewBox="0 0 1280 1024"><defs><style>.cls-1{fill:#fff;}</style></defs><path class="cls-1" d="M880,795.91a23.75,23.75,0,0,1-23.77-23.77c0-118.49-96.4-214.89-214.89-214.89s-214.87,96.4-214.87,214.89a23.77,23.77,0,1,1-47.53,0c0-144.7,117.7-262.43,262.4-262.43S903.71,627.44,903.71,772.14A23.75,23.75,0,0,1,880,795.91Z"/><path class="cls-1" d="M641.29,558c-89.46,0-162.22-72.77-162.22-162.23s72.76-162.22,162.22-162.22,162.22,72.77,162.22,162.22S730.74,558,641.29,558Zm0-276.91A114.69,114.69,0,1,0,756,395.79,114.83,114.83,0,0,0,641.29,281.11Z"/><path class="cls-1" d="M1146,628.58a23.75,23.75,0,0,1-23.77-23.77c0-74.74-64.41-135.53-143.56-135.53S835.08,530.07,835.08,604.81a23.77,23.77,0,0,1-47.54,0c0-100.95,85.74-183.07,191.12-183.07s191.1,82.12,191.1,183.07A23.75,23.75,0,0,1,1146,628.58Z"/><path class="cls-1" d="M978.66,469.79A120.85,120.85,0,1,1,1099.5,349,121,121,0,0,1,978.66,469.79Zm0-194.16A73.31,73.31,0,1,0,1052,349,73.4,73.4,0,0,0,978.66,275.63Z"/><path class="cls-1" d="M468.69,628.58a23.75,23.75,0,0,1-23.77-23.77c0-74.74-64.41-135.53-143.58-135.53S157.78,530.07,157.78,604.81a23.77,23.77,0,0,1-47.54,0c0-100.95,85.72-183.07,191.1-183.07s191.12,82.12,191.12,183.07A23.75,23.75,0,0,1,468.69,628.58Z"/><path class="cls-1" d="M301.34,469.79A120.85,120.85,0,1,1,422.2,349,121,121,0,0,1,301.34,469.79Zm0-194.16A73.31,73.31,0,1,0,374.66,349,73.4,73.4,0,0,0,301.34,275.63Z"/></svg>