<svg xmlns="http://www.w3.org/2000/svg" width="35.84" height="14.678" viewBox="0 0 35.84 14.678">
  <path id="Path_369" data-name="Path 369" d="M10.117-3.877A3.593,3.593,0,0,1,8.74-.889,5.993,5.993,0,0,1,4.941.2,9.064,9.064,0,0,1,.977-.557V-2.764a10.776,10.776,0,0,0,2.075.723A8.8,8.8,0,0,0,5.1-1.777,3.255,3.255,0,0,0,7.144-2.3,1.72,1.72,0,0,0,7.8-3.721,1.775,1.775,0,0,0,7.2-5.078,9.115,9.115,0,0,0,4.7-6.4,6.614,6.614,0,0,1,1.943-8.2a3.823,3.823,0,0,1-.8-2.441,3.419,3.419,0,0,1,1.27-2.812A5.266,5.266,0,0,1,5.82-14.482a10.014,10.014,0,0,1,4.082.9l-.742,1.9a8.918,8.918,0,0,0-3.4-.8,2.608,2.608,0,0,0-1.719.493,1.62,1.62,0,0,0-.586,1.3,1.835,1.835,0,0,0,.234.952,2.394,2.394,0,0,0,.771.747A13.05,13.05,0,0,0,6.4-8.057,10.58,10.58,0,0,1,8.7-6.836,3.59,3.59,0,0,1,9.775-5.557,3.848,3.848,0,0,1,10.117-3.877ZM21.738,0,20.313-3.965H14.854L13.457,0H11l5.342-14.336h2.539L24.219,0ZM19.7-5.977,18.359-9.863q-.146-.391-.405-1.23t-.356-1.23A21.886,21.886,0,0,1,16.826-9.7L15.537-5.977Zm8.74-1.66h1.621a3.7,3.7,0,0,0,2.363-.605,2.2,2.2,0,0,0,.732-1.8,1.934,1.934,0,0,0-.791-1.738A4.337,4.337,0,0,0,29.98-12.3H28.438Zm0,1.934V0H26.1V-14.277h4.033a6.627,6.627,0,0,1,4.092,1.035,3.717,3.717,0,0,1,1.328,3.125,3.906,3.906,0,0,1-2.773,3.8L36.816,0H34.16L30.742-5.7Z" transform="translate(-0.977 14.482)" fill="#2dbc66"/>
</svg>
