<svg id="Layer_1" data-name="Layer 1" xmlns="http://www.w3.org/2000/svg" viewBox="0 0 1280 1024"><defs><style>.cls-1{fill:#fff;}</style></defs><path class="cls-1" d="M867.67,759.2H468.15a24.26,24.26,0,1,1,0-48.52H867.67c146.81,0,266.22-119.44,266.22-266.24S1014.48,178.2,867.67,178.2H121.85a24.26,24.26,0,1,1,0-48.52H867.67c173.56,0,314.75,141.2,314.75,314.76S1041.23,759.2,867.67,759.2Z"/><path class="cls-1" d="M209.85,735.8,513.53,911.13a1,1,0,0,0,1.5-.86V559.6a1,1,0,0,0-1.5-.86L209.85,734.07A1,1,0,0,0,209.85,735.8Z"/></svg>