<svg id="Layer_1" data-name="Layer 1" xmlns="http://www.w3.org/2000/svg" viewBox="0 0 1280 1024"><defs><style>.cls-1{fill:#fff;}.cls-2{fill:#5068B8;}</style></defs><path class="cls-1" d="M640,974C386.09,974,179.5,767.37,179.5,513.45S386.09,53,640,53,1100.5,259.53,1100.5,513.45,893.93,974,640,974Zm0-879.58c-231.08,0-419.09,188-419.09,419.07S408.93,932.54,640,932.54s419.07-188,419.07-419.09S871.07,94.38,640,94.38Z"/><path class="cls-1" d="M640,894.31c-209.87,0-380.6-170.73-380.6-380.6S430.14,133.14,640,133.14s380.58,170.73,380.58,380.57S849.86,894.31,640,894.31Zm0-719.75c-187,0-339.17,152.14-339.17,339.15S453,852.89,640,852.89,979.16,700.72,979.16,513.71,827,174.56,640,174.56Z"/><path class="cls-1" d="M479.6,633.49a65.15,65.15,0,0,1-65.08-65.07,10.25,10.25,0,0,1,20.49,0,44.58,44.58,0,1,0,89.16,0c0-19.64-15.36-28.44-40.41-41.16-3-1.51-6-3-8.93-4.59l-3.64-1.75c-21.19-10.25-56.67-27.38-56.67-62.14a65.07,65.07,0,1,1,130.14,0,10.25,10.25,0,0,1-20.49,0,44.58,44.58,0,1,0-89.16,0c0,21.9,27.13,35,45.1,43.69l4,1.94c3.13,1.64,6,3.11,8.92,4.58,24.2,12.3,51.63,26.22,51.63,59.43A65.14,65.14,0,0,1,479.6,633.49Z"/><path class="cls-1" d="M561.31,632.9a10,10,0,0,1-3.47-.61,10.23,10.23,0,0,1-6.16-13.1l78.86-218.71c1.48-4.13,5.75-7.07,9.77-6.78a10.24,10.24,0,0,1,9.58,7l72.33,218.71a10.24,10.24,0,0,1-19.45,6.42l-63-190.57L570.94,626.13A10.23,10.23,0,0,1,561.31,632.9Z"/><path class="cls-2" d="M679.83,534.14H596.91a10.25,10.25,0,0,1,0-20.49h82.92a10.25,10.25,0,0,1,0,20.49Z"/><path class="cls-1" d="M851.68,633.43a10.2,10.2,0,0,1-7.73-3.52l-79.74-91.66v84.94a10.24,10.24,0,0,1-20.48,0V405.07a10.24,10.24,0,0,1,9.13-10.18c2.77-.3,68.42-7.14,97.91,19.3,9.76,8.76,14.71,19.95,14.71,33.28,0,53.12-52.75,74.83-81.17,82.68l75.09,86.32a10.24,10.24,0,0,1-7.72,17ZM764.21,414.57V513.7c6.34-1.07,80.79-14.76,80.79-66.23,0-7.46-2.51-13.19-7.89-18C821.08,415.08,784.79,413.64,764.21,414.57Z"/></svg>