<svg id="Layer_1" data-name="Layer 1" xmlns="http://www.w3.org/2000/svg" viewBox="0 0 1280 1024"><defs><style>.cls-1{fill:#fff;}</style></defs><path class="cls-1" d="M704.15,951.65H578.59a43.88,43.88,0,0,1-43.73-43.93V865.59C508.91,859,483.62,848.22,460.58,835L432,864.9a43.87,43.87,0,0,1-61.95,0l-88.68-88.67a43.52,43.52,0,0,1,.2-62.15l34-34c-12.27-21.4-21.38-45.4-27.73-69.79L239,611.2a44,44,0,0,1-43.93-43.92V441.92A44,44,0,0,1,239,398h53.95c7.17-20.78,16.42-37,26.77-55.24l3.87-6.78-34.29-33.35a43.82,43.82,0,0,1,0-61.9L378,152A43.89,43.89,0,0,1,440,152l38.37,38.38a290.77,290.77,0,0,1,57.17-24.51V112.38a44,44,0,0,1,43.93-43.93H704.79a44,44,0,0,1,43.93,43.93v53.51A353.47,353.47,0,0,1,807.78,190l34.42-35.49c16.39-16.4,45.41-16.44,61.9.05l88.68,88.65a43.88,43.88,0,0,1,0,62l-32.47,32.66c12.87,20.53,22.65,39.28,30.18,61h54.1a43.88,43.88,0,0,1,43.73,43.93V568.12a43.88,43.88,0,0,1-43.73,43.93H994.71c-4.84,23.48-14.15,47.7-26.06,71l32.93,31.62a44,44,0,0,1,0,62.15L912.9,865.53a43.89,43.89,0,0,1-61.95,0L821.62,836.2a364.15,364.15,0,0,1-74.52,31.5l.78,40A43.88,43.88,0,0,1,704.15,951.65ZM580.37,906.14h122V866c0-19.33,12.73-36.17,31.66-41.9a317.88,317.88,0,0,0,66.06-28A43.47,43.47,0,0,1,852.73,803l29.2,29.19,87.47-87.47-33.33-31.13a43.87,43.87,0,0,1-7.93-51.22,317.72,317.72,0,0,0,24.24-63c5.29-19.39,22.69-32.84,42.33-32.84h48.1V444.34h-69a22.76,22.76,0,0,1-21.93-16.69c-6.89-24.84-16.42-44.13-30.55-69a43.65,43.65,0,0,1,7.06-53.15L959.4,274.2,873.13,188l-34.91,34.68c-12.89,13.34-33.48,16.73-50.93,8-23.22-11.82-44.37-19.84-66.72-25.28a22.76,22.76,0,0,1-17.35-22.11V112.38L579.43,114,581,183.24a22.73,22.73,0,0,1-17.33,22.08c-22,5.43-43.13,13.38-66.53,25.09a43.79,43.79,0,0,1-51-7.82L409,185.42l-86.28,86.27,33.66,33.87c13.93,13.46,16.82,35.37,6.74,52.94l-3.85,6.76C346.91,387,338,402.68,331.89,426.41a22.76,22.76,0,0,1-22,17.08H239l1.58,123.79,48.72-1.58a44.31,44.31,0,0,1,42.53,33,315.83,315.83,0,0,0,23.69,62.5,43.81,43.81,0,0,1-7.76,51.06l-33,33L401,831.53l29.2-29.2c14.09-14.11,35.37-16.84,52.95-6.82A322,322,0,0,0,549,823.71a43.7,43.7,0,0,1,31.4,41.88Zm242.47-70.63-.06,0ZM313.56,746.45Zm647-473.4a0,0,0,0,0,0,0Zm-86.23-86.3Z"/><path class="cls-1" d="M641.76,750.79c-129,0-234-105-234-234s105-234,234-234,234,105,234,234S770.78,750.79,641.76,750.79Zm0-422.48c-103.94,0-188.49,84.54-188.49,188.48s84.55,188.49,188.49,188.49,188.48-84.54,188.48-188.49S745.7,328.31,641.76,328.31Z"/></svg>