<svg id="Layer_1" data-name="Layer 1" xmlns="http://www.w3.org/2000/svg" viewBox="0 0 1280 1024"><defs><style>.cls-1{fill:#5068B8;}</style></defs><path class="cls-1" d="M229,700c-55.67,0-101-45.9-101-102.3a25.81,25.81,0,1,1,51.61,0c0,28,22.14,50.68,49.36,50.68s49.36-22.73,49.36-50.68c0-21.78-21.45-34-54.16-50.08l-17.5-8.87c-35.06-17.84-78.67-40.07-78.67-94,0-56.4,45.3-102.3,101-102.3s101,45.9,101,102.3a25.81,25.81,0,0,1-51.62,0c0-27.95-22.14-50.68-49.36-50.68s-49.36,22.73-49.36,50.68c0,20.19,15.39,30.14,50.48,48L247,501.29c33,16.28,83,40.86,83,96.38C330,654.07,284.67,700,229,700Z"/><path class="cls-1" d="M505.8,700c-78.69,0-142.69-79-142.69-176.15s64-176.14,142.69-176.14,142.68,79,142.68,176.14S584.47,700,505.8,700Zm0-300.68c-50.22,0-91.07,55.88-91.07,124.53s40.85,124.53,91.07,124.53,91.06-55.87,91.06-124.53S556,399.29,505.8,399.29Z"/><path class="cls-1" d="M909.63,700H715.26a25.79,25.79,0,0,1-25.8-25.81V373.49a25.81,25.81,0,1,1,51.61,0V648.35H909.63a25.81,25.81,0,1,1,0,51.62Z"/><path class="cls-1" d="M1002.22,700a25.8,25.8,0,0,1-25.81-25.81V373.49a25.79,25.79,0,0,1,30-25.46c63.93,10.56,184.83,60.89,184.82,175.79C1191.24,663.15,1067.59,700,1002.22,700ZM1028,406.78V646c40.37-6.47,111.6-30.84,111.6-122.21C1139.64,453.33,1069.62,420.21,1028,406.78Z"/></svg>