<svg xmlns="http://www.w3.org/2000/svg" xmlns:xlink="http://www.w3.org/1999/xlink" width="86" height="86" viewBox="0 0 86 86"><defs><style>.a{fill:#dec62a;}.b{fill:#fff;}.c{filter:url(#a);}</style><filter id="a" x="0" y="0" width="86" height="86" filterUnits="userSpaceOnUse"><feOffset dy="3" input="SourceAlpha"/><feGaussianBlur stdDeviation="3" result="b"/><feFlood flood-opacity="0.161"/><feComposite operator="in" in2="b"/><feComposite in="SourceGraphic"/></filter></defs><g transform="translate(9 6)"><g class="c" transform="matrix(1, 0, 0, 1, -9, -6)"><circle class="a" cx="34" cy="34" r="34" transform="translate(9 6)"/></g><g transform="translate(13.024 13.023)"><path class="b" d="M21.878,30.269h4.2v4.2h-4.2Zm0-16.781h4.2V26.074h-4.2ZM23.955,3a20.976,20.976,0,1,0,21,20.976A20.966,20.966,0,0,0,23.955,3Zm.021,37.757A16.781,16.781,0,1,1,40.757,23.976,16.776,16.776,0,0,1,23.976,40.757Z" transform="translate(-3 -3)"/></g></g></svg>